  0
SECTION
  2
HEADER
  9
$ACADVER
  1
AC1024
  9
$ACADMAINTVER
 70
     6
  9
$DWGCODEPAGE
  3
ANSI_1251
  9
$INSBASE
 10
0.0
 20
0.0
 30
0.0
  9
$EXTMIN
 10
1.000000000000000E+20
 20
1.000000000000000E+20
 30
1.000000000000000E+20
  9
$EXTMAX
 10
-1.000000000000000E+20
 20
-1.000000000000000E+20
 30
-1.000000000000000E+20
  9
$LIMMIN
 10
0.0
 20
0.0
  9
$LIMMAX
 10
12.0
 20
9.0
  9
$ORTHOMODE
 70
     0
  9
$REGENMODE
 70
     1
  9
$FILLMODE
 70
     1
  9
$QTEXTMODE
 70
     0
  9
$MIRRTEXT
 70
     1
  9
$LTSCALE
 40
1.0
  9
$ATTMODE
 70
     1
  9
$TEXTSIZE
 40
0.2
  9
$TRACEWID
 40
0.05
  9
$TEXTSTYLE
  7
Standard
  9
$CLAYER
  8
0
  9
$CELTYPE
  6
ByLayer
  9
$CECOLOR
 62
   256
  9
$CELTSCALE
 40
1.0
  9
$DISPSILH
 70
     0
  9
$DIMSCALE
 40
1.0
  9
$DIMASZ
 40
0.18
  9
$DIMEXO
 40
0.0625
  9
$DIMDLI
 40
0.38
  9
$DIMRND
 40
0.0
  9
$DIMDLE
 40
0.0
  9
$DIMEXE
 40
0.18
  9
$DIMTP
 40
0.0
  9
$DIMTM
 40
0.0
  9
$DIMTXT
 40
0.18
  9
$DIMCEN
 40
0.09
  9
$DIMTSZ
 40
0.0
  9
$DIMTOL
 70
     0
  9
$DIMLIM
 70
     0
  9
$DIMTIH
 70
     1
  9
$DIMTOH
 70
     1
  9
$DIMSE1
 70
     0
  9
$DIMSE2
 70
     0
  9
$DIMTAD
 70
     0
  9
$DIMZIN
 70
     0
  9
$DIMBLK
  1

  9
$DIMASO
 70
     1
  9
$DIMSHO
 70
     1
  9
$DIMPOST
  1

  9
$DIMAPOST
  1

  9
$DIMALT
 70
     0
  9
$DIMALTD
 70
     2
  9
$DIMALTF
 40
25.4
  9
$DIMLFAC
 40
1.0
  9
$DIMTOFL
 70
     0
  9
$DIMTVP
 40
0.0
  9
$DIMTIX
 70
     0
  9
$DIMSOXD
 70
     0
  9
$DIMSAH
 70
     0
  9
$DIMBLK1
  1

  9
$DIMBLK2
  1

  9
$DIMSTYLE
  2
Standard
  9
$DIMCLRD
 70
     0
  9
$DIMCLRE
 70
     0
  9
$DIMCLRT
 70
     0
  9
$DIMTFAC
 40
1.0
  9
$DIMGAP
 40
0.09
  9
$DIMJUST
 70
     0
  9
$DIMSD1
 70
     0
  9
$DIMSD2
 70
     0
  9
$DIMTOLJ
 70
     1
  9
$DIMTZIN
 70
     0
  9
$DIMALTZ
 70
     0
  9
$DIMALTTZ
 70
     0
  9
$DIMUPT
 70
     0
  9
$DIMDEC
 70
     4
  9
$DIMTDEC
 70
     4
  9
$DIMALTU
 70
     2
  9
$DIMALTTD
 70
     2
  9
$DIMTXSTY
  7
Standard
  9
$DIMAUNIT
 70
     0
  9
$DIMADEC
 70
     0
  9
$DIMALTRND
 40
0.0
  9
$DIMAZIN
 70
     0
  9
$DIMDSEP
 70
    46
  9
$DIMATFIT
 70
     3
  9
$DIMFRAC
 70
     0
  9
$DIMLDRBLK
  1

  9
$DIMLUNIT
 70
     2
  9
$DIMLWD
 70
    -2
  9
$DIMLWE
 70
    -2
  9
$DIMTMOVE
 70
     0
  9
$DIMFXL
 40
1.0
  9
$DIMFXLON
 70
     0
  9
$DIMJOGANG
 40
0.7853981633974483
  9
$DIMTFILL
 70
     0
  9
$DIMTFILLCLR
 70
     0
  9
$DIMARCSYM
 70
     0
  9
$DIMLTYPE
  6

  9
$DIMLTEX1
  6

  9
$DIMLTEX2
  6

  9
$DIMTXTDIRECTION
 70
     0
  9
$LUNITS
 70
     2
  9
$LUPREC
 70
     4
  9
$SKETCHINC
 40
0.1
  9
$FILLETRAD
 40
0.5
  9
$AUNITS
 70
     0
  9
$AUPREC
 70
     0
  9
$MENU
  1
.
  9
$ELEVATION
 40
0.0
  9
$PELEVATION
 40
0.0
  9
$THICKNESS
 40
0.0
  9
$LIMCHECK
 70
     0
  9
$CHAMFERA
 40
0.5
  9
$CHAMFERB
 40
0.5
  9
$CHAMFERC
 40
1.0
  9
$CHAMFERD
 40
0.0
  9
$SKPOLY
 70
     0
  9
$TDCREATE
 40
2459034.772288333
  9
$TDUCREATE
 40
2459034.647288333
  9
$TDUPDATE
 40
2459034.772288356
  9
$TDUUPDATE
 40
2459034.647288356
  9
$TDINDWG
 40
0.0000000116
  9
$TDUSRTIMER
 40
0.0000000116
  9
$USRTIMER
 70
     1
  9
$ANGBASE
 50
0.0
  9
$ANGDIR
 70
     0
  9
$PDMODE
 70
     0
  9
$PDSIZE
 40
0.0
  9
$PLINEWID
 40
0.0
  9
$SPLFRAME
 70
     0
  9
$SPLINETYPE
 70
     6
  9
$SPLINESEGS
 70
     8
  9
$HANDSEED
  5
47
  9
$SURFTAB1
 70
     6
  9
$SURFTAB2
 70
     6
  9
$SURFTYPE
 70
     6
  9
$SURFU
 70
     6
  9
$SURFV
 70
     6
  9
$UCSBASE
  2

  9
$UCSNAME
  2

  9
$UCSORG
 10
0.0
 20
0.0
 30
0.0
  9
$UCSXDIR
 10
1.0
 20
0.0
 30
0.0
  9
$UCSYDIR
 10
0.0
 20
1.0
 30
0.0
  9
$UCSORTHOREF
  2

  9
$UCSORTHOVIEW
 70
     0
  9
$UCSORGTOP
 10
0.0
 20
0.0
 30
0.0
  9
$UCSORGBOTTOM
 10
0.0
 20
0.0
 30
0.0
  9
$UCSORGLEFT
 10
0.0
 20
0.0
 30
0.0
  9
$UCSORGRIGHT
 10
0.0
 20
0.0
 30
0.0
  9
$UCSORGFRONT
 10
0.0
 20
0.0
 30
0.0
  9
$UCSORGBACK
 10
0.0
 20
0.0
 30
0.0
  9
$PUCSBASE
  2

  9
$PUCSNAME
  2

  9
$PUCSORG
 10
0.0
 20
0.0
 30
0.0
  9
$PUCSXDIR
 10
1.0
 20
0.0
 30
0.0
  9
$PUCSYDIR
 10
0.0
 20
1.0
 30
0.0
  9
$PUCSORTHOREF
  2

  9
$PUCSORTHOVIEW
 70
     0
  9
$PUCSORGTOP
 10
0.0
 20
0.0
 30
0.0
  9
$PUCSORGBOTTOM
 10
0.0
 20
0.0
 30
0.0
  9
$PUCSORGLEFT
 10
0.0
 20
0.0
 30
0.0
  9
$PUCSORGRIGHT
 10
0.0
 20
0.0
 30
0.0
  9
$PUCSORGFRONT
 10
0.0
 20
0.0
 30
0.0
  9
$PUCSORGBACK
 10
0.0
 20
0.0
 30
0.0
  9
$USERI1
 70
     0
  9
$USERI2
 70
     0
  9
$USERI3
 70
     0
  9
$USERI4
 70
     0
  9
$USERI5
 70
     0
  9
$USERR1
 40
0.0
  9
$USERR2
 40
0.0
  9
$USERR3
 40
0.0
  9
$USERR4
 40
0.0
  9
$USERR5
 40
0.0
  9
$WORLDVIEW
 70
     1
  9
$SHADEDGE
 70
     3
  9
$SHADEDIF
 70
    70
  9
$TILEMODE
 70
     1
  9
$MAXACTVP
 70
    64
  9
$PINSBASE
 10
0.0
 20
0.0
 30
0.0
  9
$PLIMCHECK
 70
     0
  9
$PEXTMIN
 10
1.000000000000000E+20
 20
1.000000000000000E+20
 30
1.000000000000000E+20
  9
$PEXTMAX
 10
-1.000000000000000E+20
 20
-1.000000000000000E+20
 30
-1.000000000000000E+20
  9
$PLIMMIN
 10
0.0
 20
0.0
  9
$PLIMMAX
 10
12.0
 20
9.0
  9
$UNITMODE
 70
     0
  9
$VISRETAIN
 70
     1
  9
$PLINEGEN
 70
     0
  9
$PSLTSCALE
 70
     1
  9
$TREEDEPTH
 70
  3020
  9
$CMLSTYLE
  2
Standard
  9
$CMLJUST
 70
     0
  9
$CMLSCALE
 40
1.0
  9
$PROXYGRAPHICS
 70
     1
  9
$MEASUREMENT
 70
     0
  9
$CELWEIGHT
370
    -1
  9
$ENDCAPS
280
     0
  9
$JOINSTYLE
280
     0
  9
$LWDISPLAY
290
     1
  9
$INSUNITS
 70
     1
  9
$HYPERLINKBASE
  1

  9
$STYLESHEET
  1

  9
$XEDIT
290
     1
  9
$CEPSNTYPE
380
     0
  9
$PSTYLEMODE
290
     1
  9
$FINGERPRINTGUID
  2
{F9A68806-588E-4E28-A09D-86A83D9C41C2}
  9
$VERSIONGUID
  2
{FAEB1C32-E019-11D5-929B-00C0DF256EC4}
  9
$EXTNAMES
290
     1
  9
$PSVPSCALE
 40
0.0
  9
$OLESTARTUP
290
     0
  9
$SORTENTS
280
   127
  9
$INDEXCTL
280
     0
  9
$HIDETEXT
280
     1
  9
$XCLIPFRAME
280
     2
  9
$HALOGAP
280
     0
  9
$OBSCOLOR
 70
   257
  9
$OBSLTYPE
280
     0
  9
$INTERSECTIONDISPLAY
280
     0
  9
$INTERSECTIONCOLOR
 70
   257
  9
$DIMASSOC
280
     2
  9
$PROJECTNAME
  1

  9
$CAMERADISPLAY
290
     0
  9
$LENSLENGTH
 40
50.0
  9
$CAMERAHEIGHT
 40
0.0
  9
$STEPSPERSEC
 40
2.0
  9
$STEPSIZE
 40
6.0
  9
$3DDWFPREC
 40
2.0
  9
$PSOLWIDTH
 40
0.25
  9
$PSOLHEIGHT
 40
4.0
  9
$LOFTANG1
 40
1.570796326794897
  9
$LOFTANG2
 40
1.570796326794897
  9
$LOFTMAG1
 40
0.0
  9
$LOFTMAG2
 40
0.0
  9
$LOFTPARAM
 70
     7
  9
$LOFTNORMALS
280
     1
  9
$LATITUDE
 40
37.795
  9
$LONGITUDE
 40
-122.394
  9
$NORTHDIRECTION
 40
0.0
  9
$TIMEZONE
 70
 -8000
  9
$LIGHTGLYPHDISPLAY
280
     1
  9
$TILEMODELIGHTSYNCH
280
     1
  9
$CMATERIAL
347
3C
  9
$SOLIDHIST
280
     1
  9
$SHOWHIST
280
     1
  9
$DWFFRAME
280
     2
  9
$DGNFRAME
280
     2
  9
$REALWORLDSCALE
290
     1
  9
$INTERFERECOLOR
 62
   256
  9
$CSHADOW
280
     0
  9
$SHADOWPLANELOCATION
 40
0.0
  0
ENDSEC
  0
SECTION
  2
CLASSES
  0
CLASS
  1
ACDBDICTIONARYWDFLT
  2
AcDbDictionaryWithDefault
  3
ObjectDBX Classes
 90
        0
 91
        4
280
     0
281
     0
  0
CLASS
  1
VISUALSTYLE
  2
AcDbVisualStyle
  3
ObjectDBX Classes
 90
     4095
 91
        4
280
     0
281
     0
  0
CLASS
  1
MATERIAL
  2
AcDbMaterial
  3
ObjectDBX Classes
 90
     1153
 91
        4
280
     0
281
     0
  0
CLASS
  1
SUN
  2
AcDbSun
  3
SCENEOE
 90
     1024
 91
        4
280
     0
281
     0
  0
ENDSEC
  0
SECTION
  2
TABLES
  0
TABLE
  2
VPORT
  5
8
330
0
100
AcDbSymbolTable
 70
     1
  0
VPORT
  5
29
330
8
100
AcDbSymbolTableRecord
100
AcDbViewportTableRecord
  2
*Active
 70
     0
 10
0.0
 20
0.0
 11
1.0
 21
1.0
 12
0.0
 22
0.0
 13
0.0
 23
0.0
 14
0.5
 24
0.5
 15
0.5
 25
0.5
 16
0.0
 26
0.0
 36
1.0
 17
375.0
 27
-375.0
 37
0.0
 40
750.0
 41
1.0
 42
50.0
 43
0.0
 44
0.0
 50
0.0
 51
0.0
 71
     0
 72
   100
 73
     1
 74
     3
 75
     0
 76
     0
 77
     0
 78
     0
281
     0
 65
     1
110
0.0
120
0.0
130
0.0
111
1.0
121
0.0
131
0.0
112
0.0
122
1.0
132
0.0
 79
     0
146
0.0
 60
     3
 61
     5
292
     1
282
     1
141
0.0
142
0.0
 63
   250
361
3F
  0
ENDTAB
  0
TABLE
  2
LTYPE
  5
5
330
0
100
AcDbSymbolTable
 70
     1
  0
LTYPE
  5
14
330
5
100
AcDbSymbolTableRecord
100
AcDbLinetypeTableRecord
  2
ByBlock
 70
     0
  3

 72
    65
 73
     0
 40
0.0
  0
LTYPE
  5
15
330
5
100
AcDbSymbolTableRecord
100
AcDbLinetypeTableRecord
  2
ByLayer
 70
     0
  3

 72
    65
 73
     0
 40
0.0
  0
LTYPE
  5
16
330
5
100
AcDbSymbolTableRecord
100
AcDbLinetypeTableRecord
  2
Continuous
 70
     0
  3
Solid line
 72
    65
 73
     0
 40
0.0
  0
ENDTAB
  0
TABLE
  2
LAYER
  5
2
330
0
100
AcDbSymbolTable
 70
     2
  0
LAYER
  5
10
330
2
100
AcDbSymbolTableRecord
100
AcDbLayerTableRecord
  2
0
 70
     0
 62
     7
  6
Continuous
370
    -3
390
F
347
3E
  0
LAYER
  5
40
330
2
100
AcDbSymbolTableRecord
100
AcDbLayerTableRecord
  2
Layer 1
 70
     0
 62
     7
  6
Continuous
370
    -3
390
F
347
3E
  0
ENDTAB
  0
TABLE
  2
STYLE
  5
3
330
0
100
AcDbSymbolTable
 70
     1
  0
STYLE
  5
11
330
3
100
AcDbSymbolTableRecord
100
AcDbTextStyleTableRecord
  2
Standard
 70
     0
 40
0.0
 41
1.0
 50
0.0
 71
     0
 42
0.2
  3
txt
  4

  0
ENDTAB
  0
TABLE
  2
VIEW
  5
6
330
0
100
AcDbSymbolTable
 70
     0
  0
ENDTAB
  0
TABLE
  2
UCS
  5
7
330
0
100
AcDbSymbolTable
 70
     0
  0
ENDTAB
  0
TABLE
  2
APPID
  5
9
330
0
100
AcDbSymbolTable
 70
     1
  0
APPID
  5
12
330
9
100
AcDbSymbolTableRecord
100
AcDbRegAppTableRecord
  2
ACAD
 70
     0
  0
ENDTAB
  0
TABLE
  2
DIMSTYLE
  5
A
330
0
100
AcDbSymbolTable
 70
     1
100
AcDbDimStyleTable
  0
DIMSTYLE
105
27
330
A
100
AcDbSymbolTableRecord
100
AcDbDimStyleTableRecord
  2
Standard
 70
     0
178
     0
340
11
  0
ENDTAB
  0
TABLE
  2
BLOCK_RECORD
  5
1
330
0
100
AcDbSymbolTable
 70
     1
  0
BLOCK_RECORD
  5
1F
330
1
100
AcDbSymbolTableRecord
100
AcDbBlockTableRecord
  2
*Model_Space
340
22
 70
     0
280
     1
281
     0
  0
BLOCK_RECORD
  5
1B
330
1
100
AcDbSymbolTableRecord
100
AcDbBlockTableRecord
  2
*Paper_Space
340
1E
 70
     0
280
     1
281
     0
  0
BLOCK_RECORD
  5
23
330
1
100
AcDbSymbolTableRecord
100
AcDbBlockTableRecord
  2
*Paper_Space0
340
26
 70
     0
280
     1
281
     0
  0
ENDTAB
  0
ENDSEC
  0
SECTION
  2
BLOCKS
  0
BLOCK
  5
20
330
1F
100
AcDbEntity
  8
0
100
AcDbBlockBegin
  2
*Model_Space
 70
     0
 10
0.0
 20
0.0
 30
0.0
  3
*Model_Space
  1

  0
ENDBLK
  5
21
330
1F
100
AcDbEntity
  8
0
100
AcDbBlockEnd
  0
BLOCK
  5
1C
330
1B
100
AcDbEntity
 67
     1
  8
0
100
AcDbBlockBegin
  2
*Paper_Space
 70
     0
 10
0.0
 20
0.0
 30
0.0
  3
*Paper_Space
  1

  0
ENDBLK
  5
1D
330
1B
100
AcDbEntity
 67
     1
  8
0
100
AcDbBlockEnd
  0
BLOCK
  5
24
330
23
100
AcDbEntity
  8
0
100
AcDbBlockBegin
  2
*Paper_Space0
 70
     0
 10
0.0
 20
0.0
 30
0.0
  3
*Paper_Space0
  1

  0
ENDBLK
  5
25
330
23
100
AcDbEntity
  8
0
100
AcDbBlockEnd
  0
ENDSEC
  0
SECTION
  2
ENTITIES
  0
SPLINE
  5
41
330
1F
100
AcDbEntity
  8
Layer 1
370
     0
100
AcDbSpline
210
0.0
220
0.0
230
1.0
 70
    11
 71
     3
 72
    32
 73
    28
 74
     0
 42
0.0000000001
 43
0.0000000001
 12
1.0
 22
0.0
 32
0.0
 13
1.0
 23
0.0
 33
0.0
 40
0.0
 40
0.0
 40
0.0
 40
0.0
 40
1.0
 40
1.0
 40
1.0
 40
2.0
 40
2.0
 40
2.0
 40
3.0
 40
3.0
 40
3.0
 40
4.0
 40
4.0
 40
4.0
 40
5.0
 40
5.0
 40
5.0
 40
6.0
 40
6.0
 40
6.0
 40
7.0
 40
7.0
 40
7.0
 40
8.0
 40
8.0
 40
8.0
 40
9.0
 40
9.0
 40
9.0
 40
9.0
 10
257.5283934942854
 20
-474.7356
 30
0.0
 10
258.735593463789
 20
-478.3227999999999
 30
0.0
 10
262.2932933739139
 20
-480.8721000000005
 30
0.0
 10
261.9054933837106
 20
-485.4652999999998
 30
0.0
 10
258.5976934672726
 20
-484.4935999999998
 30
0.0
 10
255.8941935355688
 20
-483.1607000000004
 30
0.0
 10
254.4934935709534
 20
-479.8163999999997
 30
0.0
 10
253.2020000000002
 20
-476.7330999999995
 30
0.0
 10
251.4317936482985
 20
-473.8541000000005
 30
0.0
 10
250.0144936841025
 20
-470.8188000000009
 30
0.0
 10
247.6653937434457
 20
-465.7875999999997
 30
0.0
 10
246.4964937729746
 20
-460.1970000000001
 30
0.0
 10
243.4575938497437
 20
-455.5283999999992
 30
0.0
 10
240.9785939123685
 20
-451.7201999999997
 30
0.0
 10
240.6554939205307
 20
-447.5871000000006
 30
0.0
 10
240.2813939299813
 20
-443.3639999999996
 30
0.0
 10
240.2130939317067
 20
-442.5918999999994
 30
0.0
 10
240.0292939363499
 20
-441.4932000000008
 30
0.0
 10
241.0296939110776
 20
-441.2401000000009
 30
0.0
 10
241.9133938887535
 20
-441.0164000000004
 30
0.0
 10
243.052193859985
 20
-442.3196000000007
 30
0.0
 10
244.2204938304712
 20
-444.2484000000004
 30
0.0
 10
246.6175937699154
 20
-448.2065000000002
 30
0.0
 10
249.1375937062548
 20
-454.7999
 30
0.0
 10
249.8274936888265
 20
-456.2435000000005
 30
0.0
 10
252.7072936160766
 20
-462.2703000000001
 30
0.0
 10
255.3964935481417
 20
-468.4002999999993
 30
0.0
 10
257.5283934942854
 20
-474.7356
 30
0.0
  0
SPLINE
  5
42
330
1F
100
AcDbEntity
  8
Layer 1
370
     0
100
AcDbSpline
210
0.0
220
0.0
230
1.0
 70
    11
 71
     3
 72
   776
 73
   772
 74
     0
 42
0.0000000001
 43
0.0000000001
 12
1.0
 22
0.0
 32
0.0
 13
1.0
 23
0.0
 33
0.0
 40
0.0
 40
0.0
 40
0.0
 40
0.0
 40
1.0
 40
1.0
 40
1.0
 40
2.0
 40
2.0
 40
2.0
 40
3.0
 40
3.0
 40
3.0
 40
4.0
 40
4.0
 40
4.0
 40
5.0
 40
5.0
 40
5.0
 40
6.0
 40
6.0
 40
6.0
 40
7.0
 40
7.0
 40
7.0
 40
8.0
 40
8.0
 40
8.0
 40
9.0
 40
9.0
 40
9.0
 40
10.0
 40
10.0
 40
10.0
 40
11.0
 40
11.0
 40
11.0
 40
12.0
 40
12.0
 40
12.0
 40
13.0
 40
13.0
 40
13.0
 40
14.0
 40
14.0
 40
14.0
 40
15.0
 40
15.0
 40
15.0
 40
16.0
 40
16.0
 40
16.0
 40
17.0
 40
17.0
 40
17.0
 40
18.0
 40
18.0
 40
18.0
 40
19.0
 40
19.0
 40
19.0
 40
20.0
 40
20.0
 40
20.0
 40
21.0
 40
21.0
 40
21.0
 40
22.0
 40
22.0
 40
22.0
 40
23.0
 40
23.0
 40
23.0
 40
24.0
 40
24.0
 40
24.0
 40
25.0
 40
25.0
 40
25.0
 40
26.0
 40
26.0
 40
26.0
 40
27.0
 40
27.0
 40
27.0
 40
28.0
 40
28.0
 40
28.0
 40
29.0
 40
29.0
 40
29.0
 40
30.0
 40
30.0
 40
30.0
 40
31.0
 40
31.0
 40
31.0
 40
32.0
 40
32.0
 40
32.0
 40
33.0
 40
33.0
 40
33.0
 40
34.0
 40
34.0
 40
34.0
 40
35.0
 40
35.0
 40
35.0
 40
36.0
 40
36.0
 40
36.0
 40
37.0
 40
37.0
 40
37.0
 40
38.0
 40
38.0
 40
38.0
 40
39.0
 40
39.0
 40
39.0
 40
40.0
 40
40.0
 40
40.0
 40
41.0
 40
41.0
 40
41.0
 40
42.0
 40
42.0
 40
42.0
 40
43.0
 40
43.0
 40
43.0
 40
44.0
 40
44.0
 40
44.0
 40
45.0
 40
45.0
 40
45.0
 40
46.0
 40
46.0
 40
46.0
 40
47.0
 40
47.0
 40
47.0
 40
48.0
 40
48.0
 40
48.0
 40
49.0
 40
49.0
 40
49.0
 40
50.0
 40
50.0
 40
50.0
 40
51.0
 40
51.0
 40
51.0
 40
52.0
 40
52.0
 40
52.0
 40
53.0
 40
53.0
 40
53.0
 40
54.0
 40
54.0
 40
54.0
 40
55.0
 40
55.0
 40
55.0
 40
56.0
 40
56.0
 40
56.0
 40
57.0
 40
57.0
 40
57.0
 40
58.0
 40
58.0
 40
58.0
 40
59.0
 40
59.0
 40
59.0
 40
60.0
 40
60.0
 40
60.0
 40
61.0
 40
61.0
 40
61.0
 40
62.0
 40
62.0
 40
62.0
 40
63.0
 40
63.0
 40
63.0
 40
64.0
 40
64.0
 40
64.0
 40
65.0
 40
65.0
 40
65.0
 40
66.0
 40
66.0
 40
66.0
 40
67.0
 40
67.0
 40
67.0
 40
68.0
 40
68.0
 40
68.0
 40
69.0
 40
69.0
 40
69.0
 40
70.0
 40
70.0
 40
70.0
 40
71.0
 40
71.0
 40
71.0
 40
72.0
 40
72.0
 40
72.0
 40
73.0
 40
73.0
 40
73.0
 40
74.0
 40
74.0
 40
74.0
 40
75.0
 40
75.0
 40
75.0
 40
76.0
 40
76.0
 40
76.0
 40
77.0
 40
77.0
 40
77.0
 40
78.0
 40
78.0
 40
78.0
 40
79.0
 40
79.0
 40
79.0
 40
80.0
 40
80.0
 40
80.0
 40
81.0
 40
81.0
 40
81.0
 40
82.0
 40
82.0
 40
82.0
 40
83.0
 40
83.0
 40
83.0
 40
84.0
 40
84.0
 40
84.0
 40
85.0
 40
85.0
 40
85.0
 40
86.0
 40
86.0
 40
86.0
 40
87.0
 40
87.0
 40
87.0
 40
88.0
 40
88.0
 40
88.0
 40
89.0
 40
89.0
 40
89.0
 40
90.0
 40
90.0
 40
90.0
 40
91.0
 40
91.0
 40
91.0
 40
92.0
 40
92.0
 40
92.0
 40
93.0
 40
93.0
 40
93.0
 40
94.0
 40
94.0
 40
94.0
 40
95.0
 40
95.0
 40
95.0
 40
96.0
 40
96.0
 40
96.0
 40
97.0
 40
97.0
 40
97.0
 40
98.0
 40
98.0
 40
98.0
 40
99.0
 40
99.0
 40
99.0
 40
100.0
 40
100.0
 40
100.0
 40
101.0
 40
101.0
 40
101.0
 40
102.0
 40
102.0
 40
102.0
 40
103.0
 40
103.0
 40
103.0
 40
104.0
 40
104.0
 40
104.0
 40
105.0
 40
105.0
 40
105.0
 40
106.0
 40
106.0
 40
106.0
 40
107.0
 40
107.0
 40
107.0
 40
108.0
 40
108.0
 40
108.0
 40
109.0
 40
109.0
 40
109.0
 40
110.0
 40
110.0
 40
110.0
 40
111.0
 40
111.0
 40
111.0
 40
112.0
 40
112.0
 40
112.0
 40
113.0
 40
113.0
 40
113.0
 40
114.0
 40
114.0
 40
114.0
 40
115.0
 40
115.0
 40
115.0
 40
116.0
 40
116.0
 40
116.0
 40
117.0
 40
117.0
 40
117.0
 40
118.0
 40
118.0
 40
118.0
 40
119.0
 40
119.0
 40
119.0
 40
120.0
 40
120.0
 40
120.0
 40
121.0
 40
121.0
 40
121.0
 40
122.0
 40
122.0
 40
122.0
 40
123.0
 40
123.0
 40
123.0
 40
124.0
 40
124.0
 40
124.0
 40
125.0
 40
125.0
 40
125.0
 40
126.0
 40
126.0
 40
126.0
 40
127.0
 40
127.0
 40
127.0
 40
128.0
 40
128.0
 40
128.0
 40
129.0
 40
129.0
 40
129.0
 40
130.0
 40
130.0
 40
130.0
 40
131.0
 40
131.0
 40
131.0
 40
132.0
 40
132.0
 40
132.0
 40
133.0
 40
133.0
 40
133.0
 40
134.0
 40
134.0
 40
134.0
 40
135.0
 40
135.0
 40
135.0
 40
136.0
 40
136.0
 40
136.0
 40
137.0
 40
137.0
 40
137.0
 40
138.0
 40
138.0
 40
138.0
 40
139.0
 40
139.0
 40
139.0
 40
140.0
 40
140.0
 40
140.0
 40
141.0
 40
141.0
 40
141.0
 40
142.0
 40
142.0
 40
142.0
 40
143.0
 40
143.0
 40
143.0
 40
144.0
 40
144.0
 40
144.0
 40
145.0
 40
145.0
 40
145.0
 40
146.0
 40
146.0
 40
146.0
 40
147.0
 40
147.0
 40
147.0
 40
148.0
 40
148.0
 40
148.0
 40
149.0
 40
149.0
 40
149.0
 40
150.0
 40
150.0
 40
150.0
 40
151.0
 40
151.0
 40
151.0
 40
152.0
 40
152.0
 40
152.0
 40
153.0
 40
153.0
 40
153.0
 40
154.0
 40
154.0
 40
154.0
 40
155.0
 40
155.0
 40
155.0
 40
156.0
 40
156.0
 40
156.0
 40
157.0
 40
157.0
 40
157.0
 40
158.0
 40
158.0
 40
158.0
 40
159.0
 40
159.0
 40
159.0
 40
160.0
 40
160.0
 40
160.0
 40
161.0
 40
161.0
 40
161.0
 40
162.0
 40
162.0
 40
162.0
 40
163.0
 40
163.0
 40
163.0
 40
164.0
 40
164.0
 40
164.0
 40
165.0
 40
165.0
 40
165.0
 40
166.0
 40
166.0
 40
166.0
 40
167.0
 40
167.0
 40
167.0
 40
168.0
 40
168.0
 40
168.0
 40
169.0
 40
169.0
 40
169.0
 40
170.0
 40
170.0
 40
170.0
 40
171.0
 40
171.0
 40
171.0
 40
172.0
 40
172.0
 40
172.0
 40
173.0
 40
173.0
 40
173.0
 40
174.0
 40
174.0
 40
174.0
 40
175.0
 40
175.0
 40
175.0
 40
176.0
 40
176.0
 40
176.0
 40
177.0
 40
177.0
 40
177.0
 40
178.0
 40
178.0
 40
178.0
 40
179.0
 40
179.0
 40
179.0
 40
180.0
 40
180.0
 40
180.0
 40
181.0
 40
181.0
 40
181.0
 40
182.0
 40
182.0
 40
182.0
 40
183.0
 40
183.0
 40
183.0
 40
184.0
 40
184.0
 40
184.0
 40
185.0
 40
185.0
 40
185.0
 40
186.0
 40
186.0
 40
186.0
 40
187.0
 40
187.0
 40
187.0
 40
188.0
 40
188.0
 40
188.0
 40
189.0
 40
189.0
 40
189.0
 40
190.0
 40
190.0
 40
190.0
 40
191.0
 40
191.0
 40
191.0
 40
192.0
 40
192.0
 40
192.0
 40
193.0
 40
193.0
 40
193.0
 40
194.0
 40
194.0
 40
194.0
 40
195.0
 40
195.0
 40
195.0
 40
196.0
 40
196.0
 40
196.0
 40
197.0
 40
197.0
 40
197.0
 40
198.0
 40
198.0
 40
198.0
 40
199.0
 40
199.0
 40
199.0
 40
200.0
 40
200.0
 40
200.0
 40
201.0
 40
201.0
 40
201.0
 40
202.0
 40
202.0
 40
202.0
 40
203.0
 40
203.0
 40
203.0
 40
204.0
 40
204.0
 40
204.0
 40
205.0
 40
205.0
 40
205.0
 40
206.0
 40
206.0
 40
206.0
 40
207.0
 40
207.0
 40
207.0
 40
208.0
 40
208.0
 40
208.0
 40
209.0
 40
209.0
 40
209.0
 40
210.0
 40
210.0
 40
210.0
 40
211.0
 40
211.0
 40
211.0
 40
212.0
 40
212.0
 40
212.0
 40
213.0
 40
213.0
 40
213.0
 40
214.0
 40
214.0
 40
214.0
 40
215.0
 40
215.0
 40
215.0
 40
216.0
 40
216.0
 40
216.0
 40
217.0
 40
217.0
 40
217.0
 40
218.0
 40
218.0
 40
218.0
 40
219.0
 40
219.0
 40
219.0
 40
220.0
 40
220.0
 40
220.0
 40
221.0
 40
221.0
 40
221.0
 40
222.0
 40
222.0
 40
222.0
 40
223.0
 40
223.0
 40
223.0
 40
224.0
 40
224.0
 40
224.0
 40
225.0
 40
225.0
 40
225.0
 40
226.0
 40
226.0
 40
226.0
 40
227.0
 40
227.0
 40
227.0
 40
228.0
 40
228.0
 40
228.0
 40
229.0
 40
229.0
 40
229.0
 40
230.0
 40
230.0
 40
230.0
 40
231.0
 40
231.0
 40
231.0
 40
232.0
 40
232.0
 40
232.0
 40
233.0
 40
233.0
 40
233.0
 40
234.0
 40
234.0
 40
234.0
 40
235.0
 40
235.0
 40
235.0
 40
236.0
 40
236.0
 40
236.0
 40
237.0
 40
237.0
 40
237.0
 40
238.0
 40
238.0
 40
238.0
 40
239.0
 40
239.0
 40
239.0
 40
240.0
 40
240.0
 40
240.0
 40
241.0
 40
241.0
 40
241.0
 40
242.0
 40
242.0
 40
242.0
 40
243.0
 40
243.0
 40
243.0
 40
244.0
 40
244.0
 40
244.0
 40
245.0
 40
245.0
 40
245.0
 40
246.0
 40
246.0
 40
246.0
 40
247.0
 40
247.0
 40
247.0
 40
248.0
 40
248.0
 40
248.0
 40
249.0
 40
249.0
 40
249.0
 40
250.0
 40
250.0
 40
250.0
 40
251.0
 40
251.0
 40
251.0
 40
252.0
 40
252.0
 40
252.0
 40
253.0
 40
253.0
 40
253.0
 40
254.0
 40
254.0
 40
254.0
 40
255.0
 40
255.0
 40
255.0
 40
256.0
 40
256.0
 40
256.0
 40
257.0
 40
257.0
 40
257.0
 40
257.0
 10
702.0457822648314
 20
-475.8706000000002
 30
0.0
 10
701.4099999999999
 20
-474.4727000000003
 30
0.0
 10
700.9211822932411
 20
-473.0105999999996
 30
0.0
 10
700.647182300163
 20
-471.4586999999992
 30
0.0
 10
694.9521824440308
 20
-467.1934000000001
 30
0.0
 10
689.3140825864612
 20
-462.8521000000001
 30
0.0
 10
683.0937827435991
 20
-459.3194999999996
 30
0.0
 10
680.0888828195093
 20
-457.6129000000001
 30
0.0
 10
677.2624828909102
 20
-455.6605
 30
0.0
 10
674.6651829565235
 20
-453.4375999999993
 30
0.0
 10
674.6605829566397
 20
-453.0445999999993
 30
0.0
 10
674.5261829600349
 20
-452.6399000000001
 30
0.0
 10
674.1936829684346
 20
-452.2731999999996
 30
0.0
 10
671.1521830452693
 20
-448.9202999999998
 30
0.0
 10
668.1104831221091
 20
-445.5674999999992
 30
0.0
 10
665.0686831989515
 20
-442.2145
 30
0.0
 10
662.8838832541442
 20
-438.5308999999997
 30
0.0
 10
659.801883332002
 20
-435.4423999999999
 30
0.0
 10
656.3862834182873
 20
-432.9056999999993
 30
0.0
 10
651.0136835540106
 20
-428.9153999999999
 30
0.0
 10
645.9771836812433
 20
-424.6875999999993
 30
0.0
 10
641.4491837956302
 20
-419.8793999999998
 30
0.0
 10
635.55578394451
 20
-413.6214999999993
 30
0.0
 10
628.5663841210771
 20
-410.9483
 30
0.0
 10
620.0830000000005
 20
-411.8709999999992
 30
0.0
 10
615.4921844513592
 20
-412.3703999999998
 30
0.0
 10
612.1084845368387
 20
-410.1376
 30
0.0
 10
610.203684584958
 20
-406.2893999999997
 30
0.0
 10
607.4592846542873
 20
-400.7448999999997
 30
0.0
 10
602.6488847758083
 20
-396.7309999999998
 30
0.0
 10
597.6626849017703
 20
-393.2610000000004
 30
0.0
 10
593.2099999999991
 20
-390.1623999999993
 30
0.0
 10
586.510785183491
 20
-387.2821999999996
 30
0.0
 10
583.3902852623214
 20
-382.7260000000006
 30
0.0
 10
582.132885294086
 20
-380.8901000000005
 30
0.0
 10
580.3314853395932
 20
-379.3772000000008
 30
0.0
 10
579.3361853647366
 20
-377.3492000000006
 30
0.0
 10
576.2717854421498
 20
-371.1053000000002
 30
0.0
 10
570.6967855829862
 20
-368.3199000000004
 30
0.0
 10
564.607085736825
 20
-365.8809000000001
 30
0.0
 10
562.0232858020972
 20
-364.8459999999995
 30
0.0
 10
560.1536858493273
 20
-362.9062999999996
 30
0.0
 10
558.4632858920304
 20
-360.7635
 30
0.0
 10
556.6458859379418
 20
-358.4597999999996
 30
0.0
 10
554.7478859858893
 20
-356.5140000000001
 30
0.0
 10
552.7586860361407
 20
-354.4053000000004
 30
0.0
 10
550.8676860839114
 20
-352.4007000000001
 30
0.0
 10
550.2181861003191
 20
-349.2605999999996
 30
0.0
 10
548.4781861442752
 20
-346.9919
 30
0.0
 10
546.3950861968988
 20
-344.2761
 30
0.0
 10
543.771386263179
 20
-342.0113000000001
 30
0.0
 10
541.0744863313084
 20
-339.9274000000005
 30
0.0
 10
536.7360864409056
 20
-336.5747000000001
 30
0.0
 10
532.5008865478958
 20
-333.1540999999997
 30
0.0
 10
528.902
 20
-328.9795999999997
 30
0.0
 10
526.3270867038591
 20
-325.9929000000002
 30
0.0
 10
523.9756867632605
 20
-324.0962
 30
0.0
 10
520.1658868595041
 20
-326.3720999999996
 30
0.0
 10
517.0460869383169
 20
-328.2358999999997
 30
0.0
 10
514.104287012633
 20
-330.3969999999999
 30
0.0
 10
511.3917870811565
 20
-332.8152
 30
0.0
 10
510.1873871115822
 20
-333.8891999999996
 30
0.0
 10
509.0387871405983
 20
-334.9802
 30
0.0
 10
508.0415871657897
 20
-336.2394000000004
 30
0.0
 10
507.132387188758
 20
-337.3874999999998
 30
0.0
 10
506.4000872072575
 20
-339.5106999999998
 30
0.0
 10
505.3331872342096
 20
-340.4143000000004
 30
0.0
 10
499.8230873734065
 20
-345.0628999999999
 30
0.0
 10
493.1746875413592
 20
-348.2021999999997
 30
0.0
 10
487.6563876807631
 20
-352.8422
 30
0.0
 10
485.8446877265305
 20
-354.3657000000003
 30
0.0
 10
483.8050877780552
 20
-353.8576000000003
 30
0.0
 10
482.5603878094989
 20
-351.6540000000005
 30
0.0
 10
478.9572879005209
 20
-345.2755999999999
 30
0.0
 10
473.9004880282664
 20
-340.1148000000003
 30
0.0
 10
468.8544881557391
 20
-334.9094999999998
 30
0.0
 10
467.7046881847855
 20
-333.7236000000003
 30
0.0
 10
466.5020882151657
 20
-332.6868000000004
 30
0.0
 10
465.165688248926
 20
-331.9332000000004
 30
0.0
 10
460.9529999999995
 20
-329.5578000000005
 30
0.0
 10
457.6390884390639
 20
-326.1116000000002
 30
0.0
 10
452.22718857578
 20
-326.8285999999998
 30
0.0
 10
452.0720000000001
 20
-326.6557000000003
 30
0.0
 10
451.8863885843894
 20
-326.4889999999996
 30
0.0
 10
451.6957885892043
 20
-326.3185000000003
 30
0.0
 10
444.893088761055
 20
-320.2359999999999
 30
0.0
 10
439.1659999999993
 20
-313.1328000000003
 30
0.0
 10
432.9641890624043
 20
-306.4812000000002
 30
0.0
 10
431.4563891004946
 20
-304.8639999999996
 30
0.0
 10
430.4446891260523
 20
-302.7954
 30
0.0
 10
429.0556891611413
 20
-301.0535
 30
0.0
 10
426.5532892243573
 20
-297.9160000000002
 30
0.0
 10
422.9860893144723
 20
-296.4403000000002
 30
0.0
 10
419.4317894042615
 20
-294.8032999999996
 30
0.0
 10
412.8308895710143
 20
-291.7633999999998
 30
0.0
 10
407.0575897168601
 20
-287.3289999999997
 30
0.0
 10
401.2262898641711
 20
-283.0527000000002
 30
0.0
 10
392.6572900806423
 20
-276.7686999999996
 30
0.0
 10
385.0261902734201
 20
-269.6391000000003
 30
0.0
 10
379.9224904023504
 20
-260.0542999999998
 30
0.0
 10
377.5715904617391
 20
-255.6391999999996
 30
0.0
 10
374.0420905509018
 20
-255.5123999999996
 30
0.0
 10
370.1037906503916
 20
-259.3530000000001
 30
0.0
 10
363.3000000000002
 20
-265.9880000000003
 30
0.0
 10
357.0882909791908
 20
-273.1814999999997
 30
0.0
 10
351.1570000000002
 20
-280.5888999999997
 30
0.0
 10
347.6314912180896
 20
-284.9917000000005
 30
0.0
 10
343.632091319123
 20
-288.7736999999997
 30
0.0
 10
339.1356914327116
 20
-292.1176999999998
 30
0.0
 10
338.1608914573371
 20
-292.8428000000004
 30
0.0
 10
337.2197914811113
 20
-293.6127999999999
 30
0.0
 10
336.2826915047845
 20
-294.3887000000004
 30
0.0
 10
331.046291637067
 20
-297.0018
 30
0.0
 10
326.6422917483214
 20
-300.7169000000004
 30
0.0
 10
323.1334918369612
 20
-305.5339999999997
 30
0.0
 10
322.9198918423572
 20
-305.8270000000002
 30
0.0
 10
322.8273918446939
 20
-306.1163999999999
 30
0.0
 10
322.8111918451032
 20
-306.3917000000001
 30
0.0
 10
318.5429999999997
 20
-310.1921000000002
 30
0.0
 10
314.5891920528084
 20
-314.0312999999996
 30
0.0
 10
311.38789213368
 20
-318.6174000000001
 30
0.0
 10
306.209192264505
 20
-326.0357999999997
 30
0.0
 10
300.8940000000002
 20
-333.3747999999996
 30
0.0
 10
296.0705925206275
 20
-341.0209999999997
 30
0.0
 10
290.9663926495705
 20
-349.1121999999996
 30
0.0
 10
283.5886928359469
 20
-354.9948000000004
 30
0.0
 10
276.9586930034347
 20
-361.5753999999997
 30
0.0
 10
272.509493115831
 20
-365.9915000000001
 30
0.0
 10
267.5235932417854
 20
-369.9589999999998
 30
0.0
 10
262.0438933802143
 20
-373.1466
 30
0.0
 10
258.7423934636172
 20
-375.0672999999997
 30
0.0
 10
255.6317935421976
 20
-374.7192999999997
 30
0.0
 10
252.457893622377
 20
-372.4029
 30
0.0
 10
251.025393658565
 20
-371.3572000000004
 30
0.0
 10
249.5644936954704
 20
-370.3509999999997
 30
0.0
 10
248.0982937325098
 20
-369.3531000000003
 30
0.0
 10
248.0799999999999
 20
-368.8311000000003
 30
0.0
 10
247.8490937388051
 20
-368.3100999999997
 30
0.0
 10
247.30579375253
 20
-367.9390000000003
 30
0.0
 10
242.8798938643376
 20
-364.9156000000003
 30
0.0
 10
237.8227939920907
 20
-361.9683999999997
 30
0.0
 10
233.7541940948722
 20
-358.2956999999997
 30
0.0
 10
229.4565942034387
 20
-354.4160000000002
 30
0.0
 10
225.1516943121896
 20
-350.4636
 30
0.0
 10
220.8391944211326
 20
-346.5688
 30
0.0
 10
217.9114944950925
 20
-343.9247999999998
 30
0.0
 10
214.1162945909673
 20
-338.7221
 30
0.0
 10
209.6859999999997
 20
-339.3577000000005
 30
0.0
 10
207.883694748416
 20
-339.6165000000001
 30
0.0
 10
203.7412948530618
 20
-340.9003000000002
 30
0.0
 10
202.8984948743528
 20
-342.6985000000004
 30
0.0
 10
202.1482948933044
 20
-344.2991000000002
 30
0.0
 10
201.6528949058193
 20
-346.0222999999996
 30
0.0
 10
200.8644949257359
 20
-347.6010999999999
 30
0.0
 10
199.0908949705408
 20
-351.1522999999997
 30
0.0
 10
196.650395032193
 20
-354.2727999999997
 30
0.0
 10
193.5075951115869
 20
-356.6463000000003
 30
0.0
 10
185.9981953012903
 20
-362.3173999999999
 30
0.0
 10
180.0442954516984
 20
-369.7075000000004
 30
0.0
 10
173.2017956245545
 20
-376.1097000000009
 30
0.0
 10
165.7868958118706
 20
-383.0475000000006
 30
0.0
 10
156.6668960422612
 20
-387.3534999999993
 30
0.0
 10
148.5740962467025
 20
-393.4069999999992
 30
0.0
 10
146.8065962913533
 20
-393.8394000000008
 30
0.0
 10
145.5988963218624
 20
-396.0022000000008
 30
0.0
 10
143.6712963705577
 20
-396.2813000000006
 30
0.0
 10
139.8230964677714
 20
-396.8384000000005
 30
0.0
 10
136.297596556833
 20
-398.6329000000005
 30
0.0
 10
133.0071966399555
 20
-400.9015999999992
 30
0.0
 10
127.5238967784753
 20
-404.6823000000004
 30
0.0
 10
126.2235968113237
 20
-411.5224999999991
 30
0.0
 10
121.6325969273021
 20
-416.0197000000007
 30
0.0
 10
120.3742969590894
 20
-417.2520999999997
 30
0.0
 10
119.2037969886587
 20
-418.6298000000006
 30
0.0
 10
117.8645970224898
 20
-419.7425999999996
 30
0.0
 10
116.736297050993
 20
-420.6805000000004
 30
0.0
 10
115.2038970897047
 20
-421.2273999999998
 30
0.0
 10
114.1653971159394
 20
-422.2659000000003
 30
0.0
 10
111.8503971744212
 20
-424.1165000000001
 30
0.0
 10
109.5373972328525
 20
-425.9701999999997
 30
0.0
 10
107.1964972919886
 20
-427.7880000000005
 30
0.0
 10
102.7322974047638
 20
-431.2548000000006
 30
0.0
 10
98.15110000000004
 20
-433.8531000000003
 30
0.0
 10
93.17479999999978
 20
-436.5208000000002
 30
0.0
 10
83.89750000000004
 20
-441.4935999999998
 30
0.0
 10
75.32229999999981
 20
-447.1051000000007
 30
0.0
 10
69.8145999999997
 20
-456.5411999999997
 30
0.0
 10
66.32300000000032
 20
-462.5228000000006
 30
0.0
 10
61.79309999999987
 20
-467.8739999999998
 30
0.0
 10
57.8698000000004
 20
-473.5658000000003
 30
0.0
 10
54.68040000000019
 20
-478.1929
 30
0.0
 10
51.94380000000001
 20
-483.1967999999997
 30
0.0
 10
47.95420000000013
 20
-487.5517999999993
 30
0.0
 10
48.71309999999994
 20
-487.9089999999997
 30
0.0
 10
49.0594000000001
 20
-488.2214999999997
 30
0.0
 10
49.26260000000002
 20
-488.1461999999992
 30
0.0
 10
56.51699999999983
 20
-485.4567999999999
 30
0.0
 10
64.02639999999974
 20
-486.357
 30
0.0
 10
71.45030000000042
 20
-486.7191000000003
 30
0.0
 10
78.0001000000002
 20
-487.0385000000006
 30
0.0
 10
82.57800000000043
 20
-483.7739000000001
 30
0.0
 10
87.40940000000046
 20
-479.8651000000009
 30
0.0
 10
91.67950000000019
 20
-476.4107000000004
 30
0.0
 10
97.16430000000037
 20
-473.3086999999996
 30
0.0
 10
101.9643974241626
 20
-470.6178
 30
0.0
 10
103.8968973753435
 20
-469.5346000000009
 30
0.0
 10
106.4473973109125
 20
-469.0638999999992
 30
0.0
 10
108.2324972658171
 20
-467.8402000000006
 30
0.0
 10
109.8943972238339
 20
-466.7011999999995
 30
0.0
 10
110.9198971979276
 20
-464.5331000000006
 30
0.0
 10
112.5352971571192
 20
-463.2502000000004
 30
0.0
 10
116.022897069015
 20
-460.4802
 30
0.0
 10
118.2714970122106
 20
-456.7266999999993
 30
0.0
 10
120.3917969586473
 20
-452.8372999999992
 30
0.0
 10
121.4068969330037
 20
-450.9752000000008
 30
0.0
 10
123.5110968798472
 20
-450.0308000000005
 30
0.0
 10
125.7205968240305
 20
-449.6632000000009
 30
0.0
 10
130.7020966981872
 20
-448.8346999999994
 30
0.0
 10
133.896296617495
 20
-445.8955000000005
 30
0.0
 10
136.1111965615419
 20
-441.4087
 30
0.0
 10
138.5837964990787
 20
-436.4002999999993
 30
0.0
 10
142.8166963921467
 20
-432.7135999999991
 30
0.0
 10
147.1890000000003
 20
-429.3898000000008
 30
0.0
 10
148.9936962361026
 20
-428.0177999999996
 30
0.0
 10
151.0090961851893
 20
-425.9220000000005
 30
0.0
 10
153.1223961318028
 20
-425.2080000000005
 30
0.0
 10
156.1189999999997
 20
-424.1955999999991
 30
0.0
 10
160.011395957772
 20
-424.6070999999993
 30
0.0
 10
163.1544958783707
 20
-424.1234000000004
 30
0.0
 10
171.1677956759377
 20
-422.8901999999998
 30
0.0
 10
177.896195505964
 20
-418.1993999999995
 30
0.0
 10
183.5448953632658
 20
-412.5773000000008
 30
0.0
 10
189.6332952094599
 20
-406.5177999999996
 30
0.0
 10
195.5692950595039
 20
-400.3307000000004
 30
0.0
 10
199.1333949694672
 20
-392.1525999999994
 30
0.0
 10
199.8598949511143
 20
-390.4856999999993
 30
0.0
 10
202.2470948908085
 20
-388.4231
 30
0.0
 10
204.3753948370431
 20
-386.884
 30
0.0
 10
209.8831946979044
 20
-382.9009000000005
 30
0.0
 10
215.0822945665641
 20
-378.4591999999993
 30
0.0
 10
213.9397945954261
 20
-370.3401000000003
 30
0.0
 10
213.60989460376
 20
-367.9967999999999
 30
0.0
 10
214.3516945850206
 20
-365.7187999999996
 30
0.0
 10
214.8417945726396
 20
-363.3980000000001
 30
0.0
 10
216.3622945342286
 20
-363.0140000000001
 30
0.0
 10
217.6822945008826
 20
-362.1334999999999
 30
0.0
 10
217.9560944939658
 20
-360.3666000000003
 30
0.0
 10
217.9718944935667
 20
-360.2636000000002
 30
0.0
 10
217.9752944934808
 20
-360.1620000000003
 30
0.0
 10
217.9799999999996
 20
-360.0604999999996
 30
0.0
 10
219.0414944665463
 20
-358.6707999999999
 30
0.0
 10
219.8693944456318
 20
-359.1926000000003
 30
0.0
 10
222.8298943708432
 20
-361.0999000000002
 30
0.0
 10
222.926094368413
 20
-361.1619000000001
 30
0.0
 10
223.0
 20
-361.2075999999997
 30
0.0
 10
223.0852943643913
 20
-361.2623000000003
 30
0.0
 10
225.1220943129374
 20
-363.3333000000002
 30
0.0
 10
227.374294256042
 20
-365.1049999999996
 30
0.0
 10
229.8210941942307
 20
-366.5793999999996
 30
0.0
 10
238.9436939637744
 20
-374.2448999999997
 30
0.0
 10
248.2240000000002
 20
-381.5954000000002
 30
0.0
 10
259.3165934491117
 20
-386.4531000000006
 30
0.0
 10
265.8260932846679
 20
-389.3035
 30
0.0
 10
270.302393171587
 20
-394.3394000000008
 30
0.0
 10
271.2892931466558
 20
-401.8425999999999
 30
0.0
 10
271.8253931331128
 20
-405.9179000000004
 30
0.0
 10
274.0075930779858
 20
-409.5143000000007
 30
0.0
 10
276.0111930273706
 20
-413.0185999999994
 30
0.0
 10
277.1306929990897
 20
-414.9791000000005
 30
0.0
 10
277.3102929945526
 20
-419.2304999999997
 30
0.0
 10
280.0003929265949
 20
-419.7257000000009
 30
0.0
 10
280.7310929081359
 20
-419.8600999999999
 30
0.0
 10
281.5550928873199
 20
-419.902
 30
0.0
 10
282.0674928743756
 20
-420.4398999999994
 30
0.0
 10
282.4690000000001
 20
-420.8611999999994
 30
0.0
 10
282.5654928617951
 20
-421.4766
 30
0.0
 10
282.6923928585893
 20
-422.0445999999993
 30
0.0
 10
283.628192834949
 20
-426.2288000000008
 30
0.0
 10
286.9951927498914
 20
-428.2896999999994
 30
0.0
 10
290.153692670101
 20
-430.7355000000007
 30
0.0
 10
300.3962924113512
 20
-438.6666999999998
 30
0.0
 10
307.5507922306133
 20
-451.3958999999995
 30
0.0
 10
319.5559999999996
 20
-456.8055000000004
 30
0.0
 10
325.5739999999996
 20
-459.5172000000002
 30
0.0
 10
330.5380916499053
 20
-463.9249999999993
 30
0.0
 10
335.5183915240923
 20
-468.1566000000003
 30
0.0
 10
344.1702913055269
 20
-475.5077000000001
 30
0.0
 10
353.3632910732922
 20
-484.1000000000004
 30
0.0
 10
363.9399999999996
 20
-488.5553999999993
 30
0.0
 10
365.4493907679716
 20
-489.1911
 30
0.0
 10
367.4918907163737
 20
-490.8636000000006
 30
0.0
 10
368.6456906872263
 20
-489.0743000000002
 30
0.0
 10
369.6935906607541
 20
-487.4488999999994
 30
0.0
 10
368.2056906983416
 20
-485.4482000000007
 30
0.0
 10
366.8130000000001
 20
-484.0938000000006
 30
0.0
 10
364.4395907934813
 20
-481.7857000000004
 30
0.0
 10
362.0575908536557
 20
-479.4678999999996
 30
0.0
 10
359.5016909182232
 20
-477.3708000000006
 30
0.0
 10
357.2791909743682
 20
-475.5473000000002
 30
0.0
 10
356.3632909975058
 20
-473.1625000000004
 30
0.0
 10
355.6614910152348
 20
-470.4696999999996
 30
0.0
 10
354.8262910363337
 20
-467.2659000000003
 30
0.0
 10
355.8344910108644
 20
-465.3261000000002
 30
0.0
 10
357.9930000000004
 20
-462.8413
 30
0.0
 10
360.5853908908466
 20
-459.8574000000008
 30
0.0
 10
361.6228908646372
 20
-456.2981
 30
0.0
 10
362.7652908357777
 20
-452.5719000000008
 30
0.0
 10
363.5001908172126
 20
-450.1754000000001
 30
0.0
 10
364.9060907816965
 20
-448.0517999999993
 30
0.0
 10
367.0346907279236
 20
-446.6774999999998
 30
0.0
 10
369.3897906684288
 20
-445.1571999999996
 30
0.0
 10
372.3763905929809
 20
-445.1010999999999
 30
0.0
 10
374.6790905348098
 20
-443.4907000000003
 30
0.0
 10
380.31479039244
 20
-439.5491000000002
 30
0.0
 10
383.3776903150647
 20
-430.3189999999995
 30
0.0
 10
383.7569999999996
 20
-423.8307000000004
 30
0.0
 10
384.154690295436
 20
-417.0264000000006
 30
0.0
 10
384.8289999999997
 20
-410.2441999999992
 30
0.0
 10
385.1552902701587
 20
-403.4410000000007
 30
0.0
 10
385.2466902678498
 20
-401.5362000000005
 30
0.0
 10
385.9690902496004
 20
-399.5910000000003
 30
0.0
 10
387.7323902050557
 20
-398.6561000000002
 30
0.0
 10
388.9815901734983
 20
-397.9940000000006
 30
0.0
 10
390.4138901373153
 20
-397.7932999999994
 30
0.0
 10
391.7810901027769
 20
-397.4318999999996
 30
0.0
 10
396.4712899842925
 20
-396.1923000000006
 30
0.0
 10
394.6384900305929
 20
-391.8565999999992
 30
0.0
 10
395.47939000935
 20
-388.4953999999998
 30
0.0
 10
395.116
 20
-389.9483
 30
0.0
 10
398.1371899422084
 20
-388.6622000000007
 30
0.0
 10
398.3503899368225
 20
-388.5339000000004
 30
0.0
 10
400.74418987635
 20
-387.0931
 30
0.0
 10
402.8240000000005
 20
-383.9431000000004
 30
0.0
 10
405.8449999999993
 20
-383.7445000000007
 30
0.0
 10
408.6087896776735
 20
-383.5630000000001
 30
0.0
 10
410.4706896306379
 20
-386.4670000000006
 30
0.0
 10
411.8995895945409
 20
-388.4177
 30
0.0
 10
414.4726895295389
 20
-391.9307000000008
 30
0.0
 10
417.2735894587822
 20
-395.2073
 30
0.0
 10
420.889289367442
 20
-397.8611000000001
 30
0.0
 10
428.6177891722036
 20
-403.5332999999991
 30
0.0
 10
434.4494890248825
 20
-410.7394000000004
 30
0.0
 10
437.0220000000008
 20
-420.2101000000002
 30
0.0
 10
437.5000889478179
 20
-421.9699999999993
 30
0.0
 10
438.8311889141914
 20
-425.1430999999993
 30
0.0
 10
439.6114888944794
 20
-426.7633000000005
 30
0.0
 10
442.7884888142216
 20
-433.3600999999999
 30
0.0
 10
445.2937887509324
 20
-440.2713000000003
 30
0.0
 10
448.8821886602818
 20
-446.6787000000004
 30
0.0
 10
449.4187886467262
 20
-447.6370000000006
 30
0.0
 10
453.9259999999995
 20
-455.0319999999992
 30
0.0
 10
456.3651884712453
 20
-455.3245999999999
 30
0.0
 10
457.1757884507679
 20
-455.4218999999994
 30
0.0
 10
457.6760884381292
 20
-455.2240999999995
 30
0.0
 10
457.6228884394732
 20
-454.1874000000007
 30
0.0
 10
457.4314884443083
 20
-450.4595000000008
 30
0.0
 10
454.4808885188468
 20
-448.2455000000009
 30
0.0
 10
452.7465885626589
 20
-445.3873999999996
 30
0.0
 10
452.3495885726879
 20
-444.7332000000006
 30
0.0
 10
451.8155885861779
 20
-442.0259999999998
 30
0.0
 10
451.0612886052331
 20
-439.6294999999991
 30
0.0
 10
448.2300886767553
 20
-430.6360000000004
 30
0.0
 10
444.8250000000007
 20
-421.9264999999996
 30
0.0
 10
440.4101888743025
 20
-413.5517999999993
 30
0.0
 10
439.2448889037405
 20
-411.3412000000008
 30
0.0
 10
439.0210889093942
 20
-408.3902999999991
 30
0.0
 10
437.745788941611
 20
-405.9881999999998
 30
0.0
 10
435.439288999878
 20
-401.6442000000006
 30
0.0
 10
431.4730891000727
 20
-398.7021999999997
 30
0.0
 10
428.1920891829577
 20
-395.2474999999995
 30
0.0
 10
421.7232893463733
 20
-388.4362000000001
 30
0.0
 10
416.2453894847567
 20
-381.4709999999995
 30
0.0
 10
417.7172894475734
 20
-371.2210999999998
 30
0.0
 10
418.9760000000006
 20
-370.8348999999998
 30
0.0
 10
419.6556893986053
 20
-372.0613000000003
 30
0.0
 10
420.5327893764479
 20
-372.6853000000001
 30
0.0
 10
426.6392892221847
 20
-377.0290999999997
 30
0.0
 10
432.9932890616692
 20
-381.0908999999992
 30
0.0
 10
439.8536888883609
 20
-384.1461999999992
 30
0.0
 10
443.0506888075979
 20
-385.5699000000004
 30
0.0
 10
445.8692887363941
 20
-386.5020999999997
 30
0.0
 10
448.7190886644021
 20
-388.6152000000002
 30
0.0
 10
452.9155885583896
 20
-391.7276000000002
 30
0.0
 10
456.1722884761184
 20
-395.7541999999994
 30
0.0
 10
460.3496883705884
 20
-398.8750999999993
 30
0.0
 10
464.166288274173
 20
-401.7260999999999
 30
0.0
 10
468.1498881735388
 20
-404.4794999999995
 30
0.0
 10
470.6049999999996
 20
-408.6808999999994
 30
0.0
 10
472.8369999999995
 20
-412.5000999999993
 30
0.0
 10
476.4582879636509
 20
-415.2206000000006
 30
0.0
 10
479.4246878887134
 20
-418.4249999999993
 30
0.0
 10
482.0642878220315
 20
-421.2764999999999
 30
0.0
 10
482.9498877996593
 20
-425.0853999999999
 30
0.0
 10
484.3606877640195
 20
-428.5905999999995
 30
0.0
 10
485.0768877459268
 20
-430.3700000000008
 30
0.0
 10
485.8842877255302
 20
-432.0697999999993
 30
0.0
 10
487.1117876945209
 20
-433.5596000000005
 30
0.0
 10
490.6977876039309
 20
-437.9120000000003
 30
0.0
 10
490.3924876116434
 20
-443.9788000000008
 30
0.0
 10
492.368587561723
 20
-449.0840000000007
 30
0.0
 10
493.5054875330025
 20
-452.0207000000009
 30
0.0
 10
493.6485875293874
 20
-455.6211999999996
 30
0.0
 10
495.6550000000007
 20
-458.2260999999999
 30
0.0
 10
497.6908874272704
 20
-460.8693999999996
 30
0.0
 10
499.3147873862472
 20
-463.7988000000005
 30
0.0
 10
500.6595873522747
 20
-466.8464000000004
 30
0.0
 10
501.9634873193354
 20
-469.8011999999999
 30
0.0
 10
502.4303873075405
 20
-473.5881000000008
 30
0.0
 10
505.0830872405277
 20
-475.6023000000005
 30
0.0
 10
506.223
 20
-476.4681
 30
0.0
 10
507.3628871829351
 20
-477.3336999999992
 30
0.0
 10
508.5026871541413
 20
-478.1995000000006
 30
0.0
 10
509.2189999999991
 20
-480.0661
 30
0.0
 10
510.4615871046553
 20
-481.8826000000008
 30
0.0
 10
511.9676870666081
 20
-483.7684000000008
 30
0.0
 10
512.6873870484269
 20
-476.2487000000001
 30
0.0
 10
508.9752871422024
 20
-469.6170999999995
 30
0.0
 10
505.7193872244534
 20
-463.1483000000007
 30
0.0
 10
501.3728873342552
 20
-454.5128999999997
 30
0.0
 10
500.740287350236
 20
-445.0409999999993
 30
0.0
 10
499.0947873918049
 20
-435.6309999999994
 30
0.0
 10
501.1862873389691
 20
-435.5956000000006
 30
0.0
 10
502.5623873042059
 20
-436.6682000000001
 30
0.0
 10
503.7887872732244
 20
-437.6064000000006
 30
0.0
 10
510.8712870943054
 20
-443.0244999999995
 30
0.0
 10
518.5438869004793
 20
-447.8330000000005
 30
0.0
 10
523.2157867824571
 20
-455.8418000000001
 30
0.0
 10
524.2145867572253
 20
-457.5540999999994
 30
0.0
 10
525.9881867124204
 20
-458.4423999999999
 30
0.0
 10
527.7511866678833
 20
-459.1438999999991
 30
0.0
 10
531.723
 20
-460.7242000000006
 30
0.0
 10
534.9533864859404
 20
-463.0917000000009
 30
0.0
 10
537.2905864268978
 20
-466.7700999999997
 30
0.0
 10
538.7895863890299
 20
-469.1291000000001
 30
0.0
 10
540.67738634134
 20
-470.4434999999994
 30
0.0
 10
543.2210862770808
 20
-471.3552999999993
 30
0.0
 10
546.2367862008978
 20
-472.4359999999997
 30
0.0
 10
549.0110000000004
 20
-474.0763999999999
 30
0.0
 10
552.0095860550646
 20
-475.2054000000007
 30
0.0
 10
555.7037859617412
 20
-476.5964000000004
 30
0.0
 10
559.4257858677156
 20
-476.7348999999995
 30
0.0
 10
563.0451857762819
 20
-475.0514000000003
 30
0.0
 10
564.1980857471572
 20
-474.5152999999991
 30
0.0
 10
563.8288857564839
 20
-472.6510999999991
 30
0.0
 10
562.1885857979214
 20
-471.9398000000001
 30
0.0
 10
559.4785858663818
 20
-470.7644
 30
0.0
 10
556.839485933051
 20
-469.3775999999998
 30
0.0
 10
554.047086003593
 20
-468.4519999999993
 30
0.0
 10
550.1965861008648
 20
-467.1754000000001
 30
0.0
 10
546.930186183381
 20
-464.8611000000001
 30
0.0
 10
544.6490862410064
 20
-461.8233999999993
 30
0.0
 10
540.9997863331955
 20
-456.9635999999991
 30
0.0
 10
536.284686452309
 20
-453.6362000000008
 30
0.0
 10
531.4490865744665
 20
-450.2152999999998
 30
0.0
 10
525.9871867124457
 20
-446.3513999999996
 30
0.0
 10
521.3957868284342
 20
-441.3891999999996
 30
0.0
 10
518.5620869000195
 20
-435.3294000000005
 30
0.0
 10
516.3784869551819
 20
-430.6599999999999
 30
0.0
 10
512.9532870417097
 20
-428.1951000000008
 30
0.0
 10
508.3724871574304
 20
-426.7379000000001
 30
0.0
 10
505.3482872338282
 20
-425.7757999999994
 30
0.0
 10
502.3180873103775
 20
-424.8256000000001
 30
0.0
 10
499.675887377125
 20
-423.1741000000002
 30
0.0
 10
487.8867876749428
 20
-412.5352000000003
 30
0.0
 10
478.7724879051893
 20
-399.2489999999998
 30
0.0
 10
466.5114882149282
 20
-389.0993999999992
 30
0.0
 10
459.7812883849474
 20
-383.5280000000002
 30
0.0
 10
452.6626885647784
 20
-377.8060999999998
 30
0.0
 10
444.3505887747597
 20
-374.1436999999996
 30
0.0
 10
437.8855889380793
 20
-371.2952999999998
 30
0.0
 10
431.2353891060775
 20
-368.5519999999997
 30
0.0
 10
426.7692892189007
 20
-362.5730999999996
 30
0.0
 10
426.6906892208863
 20
-362.4678999999996
 30
0.0
 10
426.5920892233771
 20
-362.3528999999999
 30
0.0
 10
426.483789226113
 20
-362.2402000000002
 30
0.0
 10
426.411389227942
 20
-362.1477000000004
 30
0.0
 10
426.340889229723
 20
-362.0542000000005
 30
0.0
 10
426.2684892315519
 20
-361.9616999999998
 30
0.0
 10
425.6702892466637
 20
-361.1977999999999
 30
0.0
 10
425.0150892632155
 20
-360.4709000000003
 30
0.0
 10
424.2490892825663
 20
-359.9143999999997
 30
0.0
 10
424.1956892839153
 20
-359.8434999999999
 30
0.0
 10
424.1406892853047
 20
-359.7725
 30
0.0
 10
424.0691892871109
 20
-359.7025999999996
 30
0.0
 10
421.4193893540505
 20
-357.1167000000005
 30
0.0
 10
418.3443894317315
 20
-355.0357000000004
 30
0.0
 10
414.8096895210256
 20
-353.8738999999996
 30
0.0
 10
410.9625896182115
 20
-352.6095999999998
 30
0.0
 10
405.2375897628372
 20
-355.6161000000002
 30
0.0
 10
402.9477898206824
 20
-359.8885
 30
0.0
 10
402.7295898261946
 20
-360.2957999999999
 30
0.0
 10
402.7790898249441
 20
-360.9200000000001
 30
0.0
 10
402.477889832553
 20
-361.1985999999997
 30
0.0
 10
398.0740899438024
 20
-365.2736000000004
 30
0.0
 10
395.189390016676
 20
-370.6280999999999
 30
0.0
 10
391.2047901173355
 20
-375.0667999999996
 30
0.0
 10
386.4940000000006
 20
-380.3140000000003
 30
0.0
 10
380.8066903800136
 20
-381.1229000000003
 30
0.0
 10
374.9340000000002
 20
-384.4063999999998
 30
0.0
 10
370.6400906368435
 20
-386.8068000000003
 30
0.0
 10
368.1874906988014
 20
-392.0413000000008
 30
0.0
 10
364.9813907797943
 20
-395.6409000000003
 30
0.0
 10
361.0105908801052
 20
-400.0992999999999
 30
0.0
 10
357.388890971597
 20
-404.9366000000009
 30
0.0
 10
355.8266910110615
 20
-410.7960999999996
 30
0.0
 10
355.2793910248874
 20
-412.8487999999998
 30
0.0
 10
353.7821910627099
 20
-414.4811000000009
 30
0.0
 10
352.2688911009391
 20
-415.9375999999993
 30
0.0
 10
349.3856911737748
 20
-418.7124000000003
 30
0.0
 10
346.0201912587945
 20
-420.8125
 30
0.0
 10
342.4586913487656
 20
-422.6285000000007
 30
0.0
 10
341.1991913805832
 20
-423.2707000000009
 30
0.0
 10
339.7787914164655
 20
-423.9491999999991
 30
0.0
 10
338.9444914375417
 20
-425.0131000000001
 30
0.0
 10
334.9536915383578
 20
-430.1016999999993
 30
0.0
 10
328.6265916981938
 20
-431.6198000000004
 30
0.0
 10
323.6898918229053
 20
-435.2430000000004
 30
0.0
 10
321.617791875251
 20
-436.7636999999995
 30
0.0
 10
319.9059999999999
 20
-436.5565999999999
 30
0.0
 10
317.9013919691351
 20
-434.3734000000004
 30
0.0
 10
315.080892040387
 20
-431.3017
 30
0.0
 10
311.4189999999999
 20
-429.2116999999998
 30
0.0
 10
309.783592174208
 20
-424.8701000000001
 30
0.0
 10
308.9030921964513
 20
-422.5324999999993
 30
0.0
 10
308.4163922087464
 20
-421.3140000000003
 30
0.0
 10
308.8828921969616
 20
-420.4549999999999
 30
0.0
 10
312.2472921119697
 20
-419.8042999999998
 30
0.0
 10
315.4965920298855
 20
-418.7572999999993
 30
0.0
 10
318.6567919500521
 20
-417.2896000000001
 30
0.0
 10
320.053591914766
 20
-416.6407999999992
 30
0.0
 10
319.6901919239463
 20
-415.0432999999994
 30
0.0
 10
318.6754919495797
 20
-414.3562000000002
 30
0.0
 10
323.3927918304107
 20
-406.4298999999992
 30
0.0
 10
327.9331917157106
 20
-399.0804000000007
 30
0.0
 10
329.7671916693798
 20
-390.4259999999995
 30
0.0
 10
331.5974916231426
 20
-381.7880000000005
 30
0.0
 10
331.1035916356195
 20
-372.8314
 30
0.0
 10
333.2955915802449
 20
-364.2223000000004
 30
0.0
 10
334.4282915516305
 20
-359.7734
 30
0.0
 10
335.962191512881
 20
-355.9074000000001
 30
0.0
 10
339.9721914115798
 20
-352.9587000000001
 30
0.0
 10
343.6637913183222
 20
-350.2440999999999
 30
0.0
 10
345.6558912679975
 20
-345.7772999999997
 30
0.0
 10
348.419891198173
 20
-342.1032999999998
 30
0.0
 10
349.3104911756745
 20
-340.9193999999998
 30
0.0
 10
349.2978911759928
 20
-339.3487000000005
 30
0.0
 10
349.1877911787742
 20
-337.7119999999995
 30
0.0
 10
348.7230911905135
 20
-330.8028999999997
 30
0.0
 10
349.3962911735071
 20
-322.7510000000002
 30
0.0
 10
355.3506910230863
 20
-318.3256000000001
 30
0.0
 10
359.1952909259635
 20
-315.4684999999999
 30
0.0
 10
362.1883908503514
 20
-311.4874
 30
0.0
 10
363.8828908075448
 20
-307.0083999999997
 30
0.0
 10
365.6554907627651
 20
-302.3238000000001
 30
0.0
 10
365.2124907739562
 20
-297.3085000000001
 30
0.0
 10
368.723290685266
 20
-293.3347999999996
 30
0.0
 10
371.8776906055791
 20
-289.7644
 30
0.0
 10
374.5305905385612
 20
-285.8505999999998
 30
0.0
 10
375.4470905154085
 20
-281.0267999999996
 30
0.0
 10
375.8352905056017
 20
-278.9839000000002
 30
0.0
 10
377.3253904679586
 20
-277.6620000000003
 30
0.0
 10
378.8814904286482
 20
-276.6940999999997
 30
0.0
 10
382.146190346175
 20
-274.6665000000003
 30
0.0
 10
388.253790191884
 20
-283.1135000000004
 30
0.0
 10
390.3469999999998
 20
-284.9084000000003
 30
0.0
 10
397.2900000000009
 20
-290.8617999999997
 30
0.0
 10
404.8302897731264
 20
-296.2689
 30
0.0
 10
412.3394895834281
 20
-301.4780000000001
 30
0.0
 10
415.2732895093141
 20
-303.5132000000003
 30
0.0
 10
418.5252894271616
 20
-305.1184000000003
 30
0.0
 10
421.6383893485181
 20
-306.8634000000002
 30
0.0
 10
426.1477892346011
 20
-309.3910999999998
 30
0.0
 10
428.7971891676716
 20
-314.3145999999997
 30
0.0
 10
432.1180890837786
 20
-318.1977999999999
 30
0.0
 10
433.6397890453372
 20
-319.9772000000003
 30
0.0
 10
433.5308890480883
 20
-321.3444
 30
0.0
 10
431.0424891109506
 20
-321.2478000000001
 30
0.0
 10
424.5062892760689
 20
-320.9946
 30
0.0
 10
419.3061894074344
 20
-324.5448999999999
 30
0.0
 10
413.6793895495794
 20
-326.9025000000001
 30
0.0
 10
412.0461895908375
 20
-327.5869000000002
 30
0.0
 10
410.4800896304005
 20
-328.3774000000003
 30
0.0
 10
409.7744896482254
 20
-330.7906999999996
 30
0.0
 10
413.09508956434
 20
-330.4098999999997
 30
0.0
 10
416.120289487917
 20
-330.2390999999998
 30
0.0
 10
419.0717894133559
 20
-329.6787999999997
 30
0.0
 10
422.6620000000003
 20
-328.9975999999997
 30
0.0
 10
426.0465892371576
 20
-330.2839999999997
 30
0.0
 10
429.4290000000001
 20
-331.3040000000001
 30
0.0
 10
433.1730890571271
 20
-332.4332999999997
 30
0.0
 10
436.7858889658601
 20
-332.3710000000001
 30
0.0
 10
440.62958886876
 20
-332.8046999999997
 30
0.0
 10
448.7263886642177
 20
-333.7177000000001
 30
0.0
 10
457.997288430015
 20
-335.5843999999997
 30
0.0
 10
463.5011882909748
 20
-341.9058999999997
 30
0.0
 10
469.0891881498101
 20
-348.3242
 30
0.0
 10
473.8736880289434
 20
-355.3082000000004
 30
0.0
 10
478.3453879159788
 20
-362.5429999999997
 30
0.0
 10
482.1273878204374
 20
-368.6619000000001
 30
0.0
 10
486.2068877173806
 20
-374.5983999999999
 30
0.0
 10
490.2268876158269
 20
-380.5669999999991
 30
0.0
 10
490.8452876002048
 20
-381.4848999999995
 30
0.0
 10
491.7056875784692
 20
-382.9488000000001
 30
0.0
 10
492.9507875470154
 20
-382.3417000000009
 30
0.0
 10
494.1667875162966
 20
-381.7487000000001
 30
0.0
 10
493.4444875345434
 20
-380.1977999999999
 30
0.0
 10
493.234587539846
 20
-379.1165000000001
 30
0.0
 10
492.9867875461059
 20
-377.8408999999992
 30
0.0
 10
492.6345875550032
 20
-376.6059999999998
 30
0.0
 10
492.8817875487584
 20
-374.9709000000003
 30
0.0
 10
498.9573873952759
 20
-376.2744000000002
 30
0.0
 10
504.1068872651886
 20
-379.2340999999997
 30
0.0
 10
508.0290871661055
 20
-383.6046999999999
 30
0.0
 10
517.6168869238973
 20
-394.2890000000007
 30
0.0
 10
526.1873867073882
 20
-405.8233
 30
0.0
 10
535.0176864843161
 20
-417.1394
 30
0.0
 10
537.1822864296337
 20
-419.9135000000006
 30
0.0
 10
538.2077864037274
 20
-422.9421999999995
 30
0.0
 10
539.258386377187
 20
-426.0743000000002
 30
0.0
 10
540.3641863492521
 20
-429.3713000000007
 30
0.0
 10
541.759
 20
-432.4972999999991
 30
0.0
 10
544.1262862542135
 20
-435.0707000000002
 30
0.0
 10
547.7011861639039
 20
-438.9567000000006
 30
0.0
 10
549.5917861161433
 20
-443.9037000000008
 30
0.0
 10
552.5458860415165
 20
-448.1762999999992
 30
0.0
 10
553.2082860247829
 20
-449.1344000000008
 30
0.0
 10
553.6917860125686
 20
-450.2916999999998
 30
0.0
 10
555.2533859731193
 20
-450.2543000000005
 30
0.0
 10
555.9369999999999
 20
-448.6470000000008
 30
0.0
 10
555.7551859604428
 20
-446.5954000000002
 30
0.0
 10
555.0328859786896
 20
-445.5642000000007
 30
0.0
 10
551.5913860656292
 20
-440.6504000000004
 30
0.0
 10
551.6461860642448
 20
-434.7764000000006
 30
0.0
 10
550.0546861044495
 20
-429.3747999999996
 30
0.0
 10
549.444186119872
 20
-427.3024000000005
 30
0.0
 10
549.268
 20
-425.9429
 30
0.0
 10
549.7053861132736
 20
-425.0578999999998
 30
0.0
 10
551.325186072354
 20
-425.2286999999997
 30
0.0
 10
552.9447860314394
 20
-425.3994999999995
 30
0.0
 10
554.5644859905224
 20
-425.5702000000001
 30
0.0
 10
559.9723858539073
 20
-428.1612000000005
 30
0.0
 10
565.0553857255
 20
-431.3963000000003
 30
0.0
 10
570.7365855819808
 20
-433.4410000000007
 30
0.0
 10
574.6921854820539
 20
-434.8644000000004
 30
0.0
 10
578.2261853927776
 20
-436.9573999999993
 30
0.0
 10
581.1468853189945
 20
-440.0596000000005
 30
0.0
 10
584.4979999999996
 20
-443.6190999999999
 30
0.0
 10
588.4976851332976
 20
-446.3215
 30
0.0
 10
592.6552850282678
 20
-448.8757000000005
 30
0.0
 10
593.7580850004088
 20
-449.5532999999996
 30
0.0
 10
594.0954849918853
 20
-451.5380000000005
 30
0.0
 10
594.6972849766826
 20
-452.9593999999997
 30
0.0
 10
596.6088849283915
 20
-457.4735999999994
 30
0.0
 10
597.2905849111703
 20
-462.2952999999998
 30
0.0
 10
598.1319999999996
 20
-467.0727999999999
 30
0.0
 10
598.6654848764374
 20
-470.1021000000001
 30
0.0
 10
599.4635848562757
 20
-473.0154000000002
 30
0.0
 10
602.0972847897428
 20
-476.2440000000006
 30
0.0
 10
601.2046848122918
 20
-468.9027000000006
 30
0.0
 10
599.6554848514279
 20
-462.4459000000006
 30
0.0
 10
599.6093848525925
 20
-455.357
 30
0.0
 10
605.0590847149215
 20
-458.3225999999995
 30
0.0
 10
610.74908457118
 20
-459.6908999999996
 30
0.0
 10
614.3377844805218
 20
-464.8845999999994
 30
0.0
 10
616.0217844379804
 20
-467.3215
 30
0.0
 10
619.2128843573664
 20
-468.3984
 30
0.0
 10
621.7822842924579
 20
-469.9410000000007
 30
0.0
 10
625.1001842086407
 20
-471.9328000000005
 30
0.0
 10
628.5463841215824
 20
-473.4094999999998
 30
0.0
 10
632.0226840337637
 20
-474.8521000000001
 30
0.0
 10
635.8251839377044
 20
-476.4302000000007
 30
0.0
 10
639.8424838362189
 20
-477.4573
 30
0.0
 10
644.3086837233932
 20
-477.5046000000002
 30
0.0
 10
643.6753837393917
 20
-475.2921000000006
 30
0.0
 10
641.8347837858892
 20
-474.6797000000006
 30
0.0
 10
640.4165838217159
 20
-473.9351999999999
 30
0.0
 10
628.919684112152
 20
-467.8986999999997
 30
0.0
 10
618.9804843632373
 20
-459.8274999999994
 30
0.0
 10
609.8389999999999
 20
-450.7212
 30
0.0
 10
606.9982846659332
 20
-447.8916000000008
 30
0.0
 10
604.4441847304552
 20
-444.7751000000007
 30
0.0
 10
601.7461847986124
 20
-441.8014999999996
 30
0.0
 10
596.7360000000008
 20
-436.2792000000009
 30
0.0
 10
592.1283850415784
 20
-430.4037000000008
 30
0.0
 10
585.9584851974432
 20
-425.9776999999995
 30
0.0
 10
580.5736853334747
 20
-422.1147999999994
 30
0.0
 10
576.8546854274246
 20
-416.4995999999992
 30
0.0
 10
572.359085540993
 20
-411.7091999999993
 30
0.0
 10
566.8095856811851
 20
-405.7957999999999
 30
0.0
 10
559.9616858541776
 20
-401.5020999999997
 30
0.0
 10
554.1316860014558
 20
-395.9937000000009
 30
0.0
 10
546.9861861819663
 20
-389.2422999999999
 30
0.0
 10
538.4942863964898
 20
-384.4966000000004
 30
0.0
 10
530.2517866047128
 20
-379.3220999999994
 30
0.0
 10
525.5384867237808
 20
-376.3631000000005
 30
0.0
 10
524.3717867532541
 20
-370.8833999999997
 30
0.0
 10
522.9420867893714
 20
-365.8903
 30
0.0
 10
521.7489999999998
 20
-361.7237999999998
 30
0.0
 10
521.7642868191251
 20
-357.4094999999998
 30
0.0
 10
523.0706867861227
 20
-353.2493000000004
 30
0.0
 10
524.4410000000007
 20
-348.8864000000003
 30
0.0
 10
524.8680867407165
 20
-344.4350000000004
 30
0.0
 10
524.826186741775
 20
-339.9177
 30
0.0
 10
524.8134867420958
 20
-338.5528999999997
 30
0.0
 10
524.9602867383874
 20
-337.1832999999997
 30
0.0
 10
526.1532867082497
 20
-336.5958000000001
 30
0.0
 10
527.4030000000002
 20
-335.9803000000002
 30
0.0
 10
528.2617866549845
 20
-337.2972
 30
0.0
 10
529.2052866311496
 20
-337.9629000000004
 30
0.0
 10
536.5903864445863
 20
-343.1724000000004
 30
0.0
 10
540.7088863405443
 20
-351.0880999999999
 30
0.0
 10
545.9005862093909
 20
-358.1139999999996
 30
0.0
 10
547.7240861633254
 20
-360.5812999999998
 30
0.0
 10
549.3745861216303
 20
-363.1005000000005
 30
0.0
 10
549.837186109944
 20
-366.2731999999996
 30
0.0
 10
550.1315861025068
 20
-368.2916000000005
 30
0.0
 10
551.6732860635602
 20
-369.5176000000001
 30
0.0
 10
553.427186019253
 20
-370.4152999999997
 30
0.0
 10
556.9050000000007
 20
-372.1953000000003
 30
0.0
 10
560.3767858436913
 20
-373.9871000000003
 30
0.0
 10
563.870485755433
 20
-375.7357000000002
 30
0.0
 10
567.2227856707468
 20
-377.4135999999999
 30
0.0
 10
570.0203856000735
 20
-379.5856999999996
 30
0.0
 10
571.9284855518708
 20
-382.9686000000002
 30
0.0
 10
577.0689999999995
 20
-392.0825000000004
 30
0.0
 10
583.8527852506377
 20
-399.1206000000002
 30
0.0
 10
594.1218849912184
 20
-402.9326999999994
 30
0.0
 10
599.0341848671233
 20
-404.7563000000009
 30
0.0
 10
603.1597847629018
 20
-408.9099000000006
 30
0.0
 10
606.535384677627
 20
-413.2826000000005
 30
0.0
 10
607.5714846514529
 20
-414.6247000000003
 30
0.0
 10
607.9115846428613
 20
-416.3083000000006
 30
0.0
 10
606.611784675697
 20
-417.4981000000007
 30
0.0
 10
604.6275847258221
 20
-419.3138999999992
 30
0.0
 10
604.6090000000004
 20
-422.2399999999998
 30
0.0
 10
602.5688847778292
 20
-423.9588999999996
 30
0.0
 10
601.2822848103315
 20
-425.0432999999994
 30
0.0
 10
602.2664847854685
 20
-426.8315000000002
 30
0.0
 10
603.8281847460166
 20
-426.5902999999998
 30
0.0
 10
604.9541847175715
 20
-426.4164000000001
 30
0.0
 10
606.2364846851779
 20
-424.7152000000006
 30
0.0
 10
607.0490846646499
 20
-424.0095000000001
 30
0.0
 10
610.7894845701594
 20
-420.7615000000005
 30
0.0
 10
613.4712845024114
 20
-419.2042999999994
 30
0.0
 10
618.4386843769244
 20
-419.0558000000001
 30
0.0
 10
623.2020842565908
 20
-418.9135999999999
 30
0.0
 10
627.3998841505454
 20
-420.4084000000003
 30
0.0
 10
631.8106840391192
 20
-422.3889999999992
 30
0.0
 10
643.8408837352108
 20
-427.7914999999994
 30
0.0
 10
651.9813835295645
 20
-437.3534999999993
 30
0.0
 10
660.4817833148263
 20
-446.7684000000008
 30
0.0
 10
664.7049999999999
 20
-451.4457999999995
 30
0.0
 10
668.7279999999992
 20
-456.5571999999993
 30
0.0
 10
674.707082955465
 20
-459.3335999999999
 30
0.0
 10
676.6193829071563
 20
-460.2216000000008
 30
0.0
 10
677.3825828878762
 20
-461.9699999999993
 30
0.0
 10
677.9271828741184
 20
-463.7983000000004
 30
0.0
 10
678.8498828508091
 20
-466.8960000000006
 30
0.0
 10
680.6823828045162
 20
-469.3696
 30
0.0
 10
682.7086827533276
 20
-472.0344000000005
 30
0.0
 10
683.450882734578
 20
-471.7536999999993
 30
0.0
 10
684.2050827155254
 20
-471.5131999999994
 30
0.0
 10
684.9752826960685
 20
-471.3397999999997
 30
0.0
 10
684.5042827079669
 20
-468.6659
 30
0.0
 10
682.4984827586377
 20
-466.5792000000001
 30
0.0
 10
682.380782761611
 20
-463.8968999999997
 30
0.0
 10
683.7433827271889
 20
-463.8449999999993
 30
0.0
 10
684.5557827066659
 20
-464.7512000000006
 30
0.0
 10
685.408082685135
 20
-465.3937000000005
 30
0.0
 10
690.6635825523699
 20
-469.3552999999993
 30
0.0
 10
695.9370824191501
 20
-473.2749000000003
 30
0.0
 10
702.0457822648314
 20
-475.8706000000002
 30
0.0
  0
SPLINE
  5
43
330
1F
100
AcDbEntity
  8
Layer 1
370
     0
100
AcDbSpline
210
0.0
220
0.0
230
1.0
 70
    11
 71
     3
 72
   194
 73
   190
 74
     0
 42
0.0000000001
 43
0.0000000001
 12
1.0
 22
0.0
 32
0.0
 13
1.0
 23
0.0
 33
0.0
 40
0.0
 40
0.0
 40
0.0
 40
0.0
 40
1.0
 40
1.0
 40
1.0
 40
2.0
 40
2.0
 40
2.0
 40
3.0
 40
3.0
 40
3.0
 40
4.0
 40
4.0
 40
4.0
 40
5.0
 40
5.0
 40
5.0
 40
6.0
 40
6.0
 40
6.0
 40
7.0
 40
7.0
 40
7.0
 40
8.0
 40
8.0
 40
8.0
 40
9.0
 40
9.0
 40
9.0
 40
10.0
 40
10.0
 40
10.0
 40
11.0
 40
11.0
 40
11.0
 40
12.0
 40
12.0
 40
12.0
 40
13.0
 40
13.0
 40
13.0
 40
14.0
 40
14.0
 40
14.0
 40
15.0
 40
15.0
 40
15.0
 40
16.0
 40
16.0
 40
16.0
 40
17.0
 40
17.0
 40
17.0
 40
18.0
 40
18.0
 40
18.0
 40
19.0
 40
19.0
 40
19.0
 40
20.0
 40
20.0
 40
20.0
 40
21.0
 40
21.0
 40
21.0
 40
22.0
 40
22.0
 40
22.0
 40
23.0
 40
23.0
 40
23.0
 40
24.0
 40
24.0
 40
24.0
 40
25.0
 40
25.0
 40
25.0
 40
26.0
 40
26.0
 40
26.0
 40
27.0
 40
27.0
 40
27.0
 40
28.0
 40
28.0
 40
28.0
 40
29.0
 40
29.0
 40
29.0
 40
30.0
 40
30.0
 40
30.0
 40
31.0
 40
31.0
 40
31.0
 40
32.0
 40
32.0
 40
32.0
 40
33.0
 40
33.0
 40
33.0
 40
34.0
 40
34.0
 40
34.0
 40
35.0
 40
35.0
 40
35.0
 40
36.0
 40
36.0
 40
36.0
 40
37.0
 40
37.0
 40
37.0
 40
38.0
 40
38.0
 40
38.0
 40
39.0
 40
39.0
 40
39.0
 40
40.0
 40
40.0
 40
40.0
 40
41.0
 40
41.0
 40
41.0
 40
42.0
 40
42.0
 40
42.0
 40
43.0
 40
43.0
 40
43.0
 40
44.0
 40
44.0
 40
44.0
 40
45.0
 40
45.0
 40
45.0
 40
46.0
 40
46.0
 40
46.0
 40
47.0
 40
47.0
 40
47.0
 40
48.0
 40
48.0
 40
48.0
 40
49.0
 40
49.0
 40
49.0
 40
50.0
 40
50.0
 40
50.0
 40
51.0
 40
51.0
 40
51.0
 40
52.0
 40
52.0
 40
52.0
 40
53.0
 40
53.0
 40
53.0
 40
54.0
 40
54.0
 40
54.0
 40
55.0
 40
55.0
 40
55.0
 40
56.0
 40
56.0
 40
56.0
 40
57.0
 40
57.0
 40
57.0
 40
58.0
 40
58.0
 40
58.0
 40
59.0
 40
59.0
 40
59.0
 40
60.0
 40
60.0
 40
60.0
 40
61.0
 40
61.0
 40
61.0
 40
62.0
 40
62.0
 40
62.0
 40
63.0
 40
63.0
 40
63.0
 40
63.0
 10
318.7723919471318
 20
-478.2823000000008
 30
0.0
 10
317.8385919707216
 20
-476.1587999999992
 30
0.0
 10
316.8385919959837
 20
-474.3230999999996
 30
0.0
 10
314.6554920511335
 20
-472.5534000000007
 30
0.0
 10
313.741892074213
 20
-470.7433000000001
 30
0.0
 10
312.2174921127225
 20
-469.1774999999998
 30
0.0
 10
310.0612921671927
 20
-467.8294999999998
 30
0.0
 10
301.201
 20
-462.2904999999992
 30
0.0
 10
291.7315926302399
 20
-457.8708000000006
 30
0.0
 10
282.7129999999997
 20
-452.6347000000005
 30
0.0
 10
279.3474929430886
 20
-450.6807000000008
 30
0.0
 10
276.7152930095835
 20
-447.5738999999994
 30
0.0
 10
274.0824930760937
 20
-444.6692000000003
 30
0.0
 10
271.2400931478987
 20
-441.5331999999999
 30
0.0
 10
268.2681932229752
 20
-439.4575999999997
 30
0.0
 10
264.7442933119964
 20
-437.2302
 30
0.0
 10
255.6150935426194
 20
-431.4603000000006
 30
0.0
 10
246.6773937684047
 20
-424.8140999999996
 30
0.0
 10
238.758293968458
 20
-417.4699999999993
 30
0.0
 10
238.7560000000003
 20
-417.4547999999995
 30
0.0
 10
238.756393968506
 20
-417.4397000000008
 30
0.0
 10
238.7539999999999
 20
-417.4246000000003
 30
0.0
 10
238.4115939772164
 20
-415.3593000000001
 30
0.0
 10
236.5586940240246
 20
-413.7554
 30
0.0
 10
234.5653940743796
 20
-413.3400999999994
 30
0.0
 10
234.5128940757058
 20
-413.3292000000001
 30
0.0
 10
234.4646940769235
 20
-413.3305999999993
 30
0.0
 10
234.4137940782093
 20
-413.3240000000005
 30
0.0
 10
232.6518941227187
 20
-409.8384999999998
 30
0.0
 10
229.2306942091454
 20
-406.8651000000009
 30
0.0
 10
225.7237942977372
 20
-406.3544000000002
 30
0.0
 10
223.4080943562367
 20
-406.0172000000002
 30
0.0
 10
221.5456944032849
 20
-407.1044000000002
 30
0.0
 10
219.9088944446339
 20
-408.5283999999992
 30
0.0
 10
216.0678945416657
 20
-411.8698999999997
 30
0.0
 10
212.4428946332409
 20
-415.5192000000006
 30
0.0
 10
208.4390947343854
 20
-418.6674999999996
 30
0.0
 10
204.3593948374473
 20
-421.8755000000001
 30
0.0
 10
199.956094948684
 20
-425.5686999999998
 30
0.0
 10
195.4115950634878
 20
-428.0810999999994
 30
0.0
 10
191.1515951711044
 20
-430.4362999999994
 30
0.0
 10
185.7288953080933
 20
-429.7950999999994
 30
0.0
 10
181.0664954258755
 20
-429.7234000000008
 30
0.0
 10
177.2056955234075
 20
-429.6641999999993
 30
0.0
 10
174.1317956010607
 20
-431.0707999999995
 30
0.0
 10
171.5822956654665
 20
-433.7818000000007
 30
0.0
 10
167.5344957677225
 20
-438.0861000000004
 30
0.0
 10
161.8148959122118
 20
-440.3508000000002
 30
0.0
 10
158.0882960063536
 20
-444.7651999999998
 30
0.0
 10
157.7736960143011
 20
-445.1380000000008
 30
0.0
 10
154.2392961035875
 20
-445.1342000000004
 30
0.0
 10
153.5515961209603
 20
-445.2960999999996
 30
0.0
 10
151.9515961613797
 20
-445.6728999999996
 30
0.0
 10
150.3971962006472
 20
-446.2453999999998
 30
0.0
 10
148.9324962376486
 20
-446.9912999999997
 30
0.0
 10
146.0060000000003
 20
-448.4815999999992
 30
0.0
 10
143.9204963642624
 20
-450.7893999999997
 30
0.0
 10
141.4510964266447
 20
-452.8646000000008
 30
0.0
 10
135.448696578278
 20
-457.9092000000001
 30
0.0
 10
129.8054967208373
 20
-463.3490999999995
 30
0.0
 10
124.2223968618782
 20
-468.8490999999995
 30
0.0
 10
123.0361968918442
 20
-470.0177000000003
 30
0.0
 10
121.5998969281281
 20
-469.7880999999998
 30
0.0
 10
120.7880969486359
 20
-470.6131000000005
 30
0.0
 10
114.7500971011686
 20
-476.7491000000009
 30
0.0
 10
106.89559729959
 20
-481.3880000000008
 30
0.0
 10
104.1724973683813
 20
-490.3104999999996
 30
0.0
 10
103.8744973759094
 20
-491.2867000000006
 30
0.0
 10
103.0026973979329
 20
-492.1550999999999
 30
0.0
 10
103.5408973843369
 20
-493.3999999999996
 30
0.0
 10
108.4834972594763
 20
-489.1095999999998
 30
0.0
 10
113.4710971334789
 20
-484.9326999999994
 30
0.0
 10
118.2489999999998
 20
-480.5282999999999
 30
0.0
 10
120.223096962909
 20
-478.7085000000006
 30
0.0
 10
123.301896885132
 20
-478.4454000000005
 30
0.0
 10
125.3718968328394
 20
-476.6772999999994
 30
0.0
 10
126.116
 20
-476.0419000000002
 30
0.0
 10
130.1902967111164
 20
-471.7021999999997
 30
0.0
 10
131.2812966835554
 20
-473.4930000000004
 30
0.0
 10
132.1013966628379
 20
-474.8389000000006
 30
0.0
 10
131.7050966728493
 20
-477.0892000000003
 30
0.0
 10
130.5650967016481
 20
-478.9179999999997
 30
0.0
 10
128.2094967611556
 20
-482.6969000000008
 30
0.0
 10
125.9631968179019
 20
-486.5349000000006
 30
0.0
 10
123.107496890043
 20
-490.0365999999995
 30
0.0
 10
128.8632967446392
 20
-487.5786000000007
 30
0.0
 10
132.7320966469051
 20
-483.1540999999997
 30
0.0
 10
135.7617965703685
 20
-477.8942000000006
 30
0.0
 10
139.067
 20
-472.1558999999997
 30
0.0
 10
143.2991963799577
 20
-467.3893000000007
 30
0.0
 10
148.931096237684
 20
-463.7605999999996
 30
0.0
 10
155.9843960595026
 20
-459.2160000000003
 30
0.0
 10
163.9260000000004
 20
-456.3940999999995
 30
0.0
 10
171.0301956794137
 20
-451.9629999999997
 30
0.0
 10
173.0991956271464
 20
-450.6726999999992
 30
0.0
 10
174.7916955843903
 20
-448.7993000000006
 30
0.0
 10
177.1520955247615
 20
-447.9125000000004
 30
0.0
 10
178.3320000000003
 20
-448.0794000000005
 30
0.0
 10
180.0077954526205
 20
-448.4110000000001
 30
0.0
 10
181.2839999999997
 20
-448.090400000001
 30
0.0
 10
181.587295412719
 20
-448.3194000000003
 30
0.0
 10
181.8840954052212
 20
-448.5578000000005
 30
0.0
 10
182.1754953978598
 20
-448.8044000000009
 30
0.0
 10
181.6600954108799
 20
-450.1218000000008
 30
0.0
 10
180.7786954331459
 20
-451.3914999999997
 30
0.0
 10
179.8902954555888
 20
-452.4840999999997
 30
0.0
 10
175.6292955632307
 20
-457.7247000000007
 30
0.0
 10
171.3469999999998
 20
-462.9627
 30
0.0
 10
166.7844957866691
 20
-467.9369000000006
 30
0.0
 10
166.4495957951294
 20
-468.3021000000008
 30
0.0
 10
166.1865958017734
 20
-468.6751000000004
 30
0.0
 10
165.9728958071719
 20
-469.0552000000007
 30
0.0
 10
164.0031958569307
 20
-470.4505000000008
 30
0.0
 10
162.2979999999998
 20
-472.0985000000001
 30
0.0
 10
160.8884959356146
 20
-474.0175999999992
 30
0.0
 10
156.4308960482231
 20
-478.1507000000001
 30
0.0
 10
151.2871961781639
 20
-481.5483000000004
 30
0.0
 10
147.4960000000001
 20
-486.3960999999999
 30
0.0
 10
144.9580963380504
 20
-489.6409999999996
 30
0.0
 10
145.6035963217437
 20
-491.9743999999992
 30
0.0
 10
149.6224962202177
 20
-492.7816999999995
 30
0.0
 10
155.8286960634359
 20
-494.0280999999995
 30
0.0
 10
161.7251959144778
 20
-492.9683999999997
 30
0.0
 10
166.8254957856334
 20
-489.1087000000007
 30
0.0
 10
170.9801956806768
 20
-485.9645
 30
0.0
 10
175.5161955660878
 20
-484.5094000000008
 30
0.0
 10
180.6947954352654
 20
-484.4053999999996
 30
0.0
 10
185.4481953151844
 20
-484.3099000000002
 30
0.0
 10
189.6088952100763
 20
-482.6093000000001
 30
0.0
 10
193.2849999999999
 20
-479.3636000000006
 30
0.0
 10
196.4821950364421
 20
-476.5409999999993
 30
0.0
 10
200.8444949262412
 20
-475.2764000000006
 30
0.0
 10
203.7033948540193
 20
-471.8425000000007
 30
0.0
 10
207.275394763783
 20
-467.5526000000009
 30
0.0
 10
211.0870946674913
 20
-463.3598999999995
 30
0.0
 10
212.5147946314246
 20
-457.8430000000008
 30
0.0
 10
213.1261946159793
 20
-455.4804999999997
 30
0.0
 10
214.8339999999998
 20
-453.9192999999996
 30
0.0
 10
216.2445945372019
 20
-452.1815000000006
 30
0.0
 10
217.8458944967497
 20
-450.2088999999996
 30
0.0
 10
221.4430944058768
 20
-449.6067000000003
 30
0.0
 10
223.544094352801
 20
-448.3544999999995
 30
0.0
 10
226.6596942740944
 20
-446.4976999999999
 30
0.0
 10
227.275294258543
 20
-443.1157000000003
 30
0.0
 10
227.7308942470336
 20
-439.8165000000008
 30
0.0
 10
228.3766942307193
 20
-435.1406000000006
 30
0.0
 10
230.8388941685189
 20
-432.0167999999994
 30
0.0
 10
233.9608940896505
 20
-429.0481999999993
 30
0.0
 10
236.0582940366658
 20
-427.0542000000005
 30
0.0
 10
238.1934939827261
 20
-426.9362999999994
 30
0.0
 10
240.0330000000004
 20
-429.3467999999993
 30
0.0
 10
244.8114938155413
 20
-435.6093999999994
 30
0.0
 10
251.590193644297
 20
-438.9400999999998
 30
0.0
 10
258.3924934724564
 20
-442.3852999999999
 30
0.0
 10
262.4257933705667
 20
-444.4279999999999
 30
0.0
 10
266.2089999999998
 20
-446.8209000000006
 30
0.0
 10
269.0637932028767
 20
-450.7551999999996
 30
0.0
 10
272.1386931251982
 20
-454.9932000000008
 30
0.0
 10
275.004493052802
 20
-459.3772000000008
 30
0.0
 10
277.8228929816032
 20
-463.7885000000006
 30
0.0
 10
279.7937929318141
 20
-466.8734999999997
 30
0.0
 10
281.1814928967578
 20
-472.1247999999996
 30
0.0
 10
284.1962928205976
 20
-474.2365000000009
 30
0.0
 10
288.7478927056145
 20
-477.4249
 30
0.0
 10
291.8005926284968
 20
-480.1767
 30
0.0
 10
294.7678925535365
 20
-484.9513999999999
 30
0.0
 10
296.3122925145217
 20
-487.4362999999994
 30
0.0
 10
298.0320000000002
 20
-489.7528000000002
 30
0.0
 10
301.0003923960903
 20
-492.3664000000008
 30
0.0
 10
300.1521924175177
 20
-483.4210000000003
 30
0.0
 10
298.4747924598923
 20
-475.8804999999993
 30
0.0
 10
291.7537926296791
 20
-470.5231999999996
 30
0.0
 10
289.0102926989857
 20
-468.3364000000001
 30
0.0
 10
288.3407927158987
 20
-465.4082999999991
 30
0.0
 10
287.6151927342289
 20
-461.8307000000004
 30
0.0
 10
295.0017925476277
 20
-464.3217999999997
 30
0.0
 10
300.9047923985054
 20
-468.3407000000007
 30
0.0
 10
306.4392922586921
 20
-473.0071000000007
 30
0.0
 10
309.3840921843002
 20
-475.4899000000005
 30
0.0
 10
312.2707921113761
 20
-478.5370000000003
 30
0.0
 10
315.4978920298527
 20
-480.6332000000002
 30
0.0
 10
316.2008920120934
 20
-483.6165000000001
 30
0.0
 10
319.8882919189418
 20
-483.4292000000005
 30
0.0
 10
321.4063918805914
 20
-485.6846000000005
 30
0.0
 10
320.7468918972518
 20
-484.7047999999995
 30
0.0
 10
320.6363919000432
 20
-482.5406000000003
 30
0.0
 10
320.0958919136974
 20
-481.348
 30
0.0
 10
319.6001919262198
 20
-480.2543000000005
 30
0.0
 10
319.1930919365041
 20
-479.2391000000007
 30
0.0
 10
318.7723919471318
 20
-478.2823000000008
 30
0.0
  0
HATCH
  5
44
330
1F
100
AcDbEntity
  8
Layer 1
 62
     7
420
 16777215
100
AcDbHatch
 10
0.0
 20
0.0
 30
0.0
210
0.0
220
0.0
230
1.0
  2
SOLID
 70
     1
 71
     0
 91
        3
 92
        1
 93
        1
 72
     4
 94
        3
 73
     0
 74
     1
 95
       32
 96
       28
 40
0.0
 40
0.0
 40
0.0
 40
0.0
 40
1.0
 40
1.0
 40
1.0
 40
2.0
 40
2.0
 40
2.0
 40
3.0
 40
3.0
 40
3.0
 40
4.0
 40
4.0
 40
4.0
 40
5.0
 40
5.0
 40
5.0
 40
6.0
 40
6.0
 40
6.0
 40
7.0
 40
7.0
 40
7.0
 40
8.0
 40
8.0
 40
8.0
 40
9.0
 40
9.0
 40
9.0
 40
9.0
 10
257.5283934942854
 20
-474.7356
 10
258.735593463789
 20
-478.3227999999999
 10
262.2932933739139
 20
-480.8721000000005
 10
261.9054933837106
 20
-485.4652999999998
 10
258.5976934672726
 20
-484.4935999999998
 10
255.8941935355688
 20
-483.1607000000004
 10
254.4934935709534
 20
-479.8163999999997
 10
253.2020000000002
 20
-476.7330999999995
 10
251.4317936482985
 20
-473.8541000000005
 10
250.0144936841025
 20
-470.8188000000009
 10
247.6653937434457
 20
-465.7875999999997
 10
246.4964937729746
 20
-460.1970000000001
 10
243.4575938497437
 20
-455.5283999999992
 10
240.9785939123685
 20
-451.7201999999997
 10
240.6554939205307
 20
-447.5871000000006
 10
240.2813939299813
 20
-443.3639999999996
 10
240.2130939317067
 20
-442.5918999999994
 10
240.0292939363499
 20
-441.4932000000008
 10
241.0296939110776
 20
-441.2401000000009
 10
241.9133938887535
 20
-441.0164000000004
 10
243.052193859985
 20
-442.3196000000007
 10
244.2204938304712
 20
-444.2484000000004
 10
246.6175937699154
 20
-448.2065000000002
 10
249.1375937062548
 20
-454.7999
 10
249.8274936888265
 20
-456.2435000000005
 10
252.7072936160766
 20
-462.2703000000001
 10
255.3964935481417
 20
-468.4002999999993
 10
257.5283934942854
 20
-474.7356
 97
        0
 97
        0
 92
        1
 93
        1
 72
     4
 94
        3
 73
     0
 74
     1
 95
      776
 96
      772
 40
0.0
 40
0.0
 40
0.0
 40
0.0
 40
1.0
 40
1.0
 40
1.0
 40
2.0
 40
2.0
 40
2.0
 40
3.0
 40
3.0
 40
3.0
 40
4.0
 40
4.0
 40
4.0
 40
5.0
 40
5.0
 40
5.0
 40
6.0
 40
6.0
 40
6.0
 40
7.0
 40
7.0
 40
7.0
 40
8.0
 40
8.0
 40
8.0
 40
9.0
 40
9.0
 40
9.0
 40
10.0
 40
10.0
 40
10.0
 40
11.0
 40
11.0
 40
11.0
 40
12.0
 40
12.0
 40
12.0
 40
13.0
 40
13.0
 40
13.0
 40
14.0
 40
14.0
 40
14.0
 40
15.0
 40
15.0
 40
15.0
 40
16.0
 40
16.0
 40
16.0
 40
17.0
 40
17.0
 40
17.0
 40
18.0
 40
18.0
 40
18.0
 40
19.0
 40
19.0
 40
19.0
 40
20.0
 40
20.0
 40
20.0
 40
21.0
 40
21.0
 40
21.0
 40
22.0
 40
22.0
 40
22.0
 40
23.0
 40
23.0
 40
23.0
 40
24.0
 40
24.0
 40
24.0
 40
25.0
 40
25.0
 40
25.0
 40
26.0
 40
26.0
 40
26.0
 40
27.0
 40
27.0
 40
27.0
 40
28.0
 40
28.0
 40
28.0
 40
29.0
 40
29.0
 40
29.0
 40
30.0
 40
30.0
 40
30.0
 40
31.0
 40
31.0
 40
31.0
 40
32.0
 40
32.0
 40
32.0
 40
33.0
 40
33.0
 40
33.0
 40
34.0
 40
34.0
 40
34.0
 40
35.0
 40
35.0
 40
35.0
 40
36.0
 40
36.0
 40
36.0
 40
37.0
 40
37.0
 40
37.0
 40
38.0
 40
38.0
 40
38.0
 40
39.0
 40
39.0
 40
39.0
 40
40.0
 40
40.0
 40
40.0
 40
41.0
 40
41.0
 40
41.0
 40
42.0
 40
42.0
 40
42.0
 40
43.0
 40
43.0
 40
43.0
 40
44.0
 40
44.0
 40
44.0
 40
45.0
 40
45.0
 40
45.0
 40
46.0
 40
46.0
 40
46.0
 40
47.0
 40
47.0
 40
47.0
 40
48.0
 40
48.0
 40
48.0
 40
49.0
 40
49.0
 40
49.0
 40
50.0
 40
50.0
 40
50.0
 40
51.0
 40
51.0
 40
51.0
 40
52.0
 40
52.0
 40
52.0
 40
53.0
 40
53.0
 40
53.0
 40
54.0
 40
54.0
 40
54.0
 40
55.0
 40
55.0
 40
55.0
 40
56.0
 40
56.0
 40
56.0
 40
57.0
 40
57.0
 40
57.0
 40
58.0
 40
58.0
 40
58.0
 40
59.0
 40
59.0
 40
59.0
 40
60.0
 40
60.0
 40
60.0
 40
61.0
 40
61.0
 40
61.0
 40
62.0
 40
62.0
 40
62.0
 40
63.0
 40
63.0
 40
63.0
 40
64.0
 40
64.0
 40
64.0
 40
65.0
 40
65.0
 40
65.0
 40
66.0
 40
66.0
 40
66.0
 40
67.0
 40
67.0
 40
67.0
 40
68.0
 40
68.0
 40
68.0
 40
69.0
 40
69.0
 40
69.0
 40
70.0
 40
70.0
 40
70.0
 40
71.0
 40
71.0
 40
71.0
 40
72.0
 40
72.0
 40
72.0
 40
73.0
 40
73.0
 40
73.0
 40
74.0
 40
74.0
 40
74.0
 40
75.0
 40
75.0
 40
75.0
 40
76.0
 40
76.0
 40
76.0
 40
77.0
 40
77.0
 40
77.0
 40
78.0
 40
78.0
 40
78.0
 40
79.0
 40
79.0
 40
79.0
 40
80.0
 40
80.0
 40
80.0
 40
81.0
 40
81.0
 40
81.0
 40
82.0
 40
82.0
 40
82.0
 40
83.0
 40
83.0
 40
83.0
 40
84.0
 40
84.0
 40
84.0
 40
85.0
 40
85.0
 40
85.0
 40
86.0
 40
86.0
 40
86.0
 40
87.0
 40
87.0
 40
87.0
 40
88.0
 40
88.0
 40
88.0
 40
89.0
 40
89.0
 40
89.0
 40
90.0
 40
90.0
 40
90.0
 40
91.0
 40
91.0
 40
91.0
 40
92.0
 40
92.0
 40
92.0
 40
93.0
 40
93.0
 40
93.0
 40
94.0
 40
94.0
 40
94.0
 40
95.0
 40
95.0
 40
95.0
 40
96.0
 40
96.0
 40
96.0
 40
97.0
 40
97.0
 40
97.0
 40
98.0
 40
98.0
 40
98.0
 40
99.0
 40
99.0
 40
99.0
 40
100.0
 40
100.0
 40
100.0
 40
101.0
 40
101.0
 40
101.0
 40
102.0
 40
102.0
 40
102.0
 40
103.0
 40
103.0
 40
103.0
 40
104.0
 40
104.0
 40
104.0
 40
105.0
 40
105.0
 40
105.0
 40
106.0
 40
106.0
 40
106.0
 40
107.0
 40
107.0
 40
107.0
 40
108.0
 40
108.0
 40
108.0
 40
109.0
 40
109.0
 40
109.0
 40
110.0
 40
110.0
 40
110.0
 40
111.0
 40
111.0
 40
111.0
 40
112.0
 40
112.0
 40
112.0
 40
113.0
 40
113.0
 40
113.0
 40
114.0
 40
114.0
 40
114.0
 40
115.0
 40
115.0
 40
115.0
 40
116.0
 40
116.0
 40
116.0
 40
117.0
 40
117.0
 40
117.0
 40
118.0
 40
118.0
 40
118.0
 40
119.0
 40
119.0
 40
119.0
 40
120.0
 40
120.0
 40
120.0
 40
121.0
 40
121.0
 40
121.0
 40
122.0
 40
122.0
 40
122.0
 40
123.0
 40
123.0
 40
123.0
 40
124.0
 40
124.0
 40
124.0
 40
125.0
 40
125.0
 40
125.0
 40
126.0
 40
126.0
 40
126.0
 40
127.0
 40
127.0
 40
127.0
 40
128.0
 40
128.0
 40
128.0
 40
129.0
 40
129.0
 40
129.0
 40
130.0
 40
130.0
 40
130.0
 40
131.0
 40
131.0
 40
131.0
 40
132.0
 40
132.0
 40
132.0
 40
133.0
 40
133.0
 40
133.0
 40
134.0
 40
134.0
 40
134.0
 40
135.0
 40
135.0
 40
135.0
 40
136.0
 40
136.0
 40
136.0
 40
137.0
 40
137.0
 40
137.0
 40
138.0
 40
138.0
 40
138.0
 40
139.0
 40
139.0
 40
139.0
 40
140.0
 40
140.0
 40
140.0
 40
141.0
 40
141.0
 40
141.0
 40
142.0
 40
142.0
 40
142.0
 40
143.0
 40
143.0
 40
143.0
 40
144.0
 40
144.0
 40
144.0
 40
145.0
 40
145.0
 40
145.0
 40
146.0
 40
146.0
 40
146.0
 40
147.0
 40
147.0
 40
147.0
 40
148.0
 40
148.0
 40
148.0
 40
149.0
 40
149.0
 40
149.0
 40
150.0
 40
150.0
 40
150.0
 40
151.0
 40
151.0
 40
151.0
 40
152.0
 40
152.0
 40
152.0
 40
153.0
 40
153.0
 40
153.0
 40
154.0
 40
154.0
 40
154.0
 40
155.0
 40
155.0
 40
155.0
 40
156.0
 40
156.0
 40
156.0
 40
157.0
 40
157.0
 40
157.0
 40
158.0
 40
158.0
 40
158.0
 40
159.0
 40
159.0
 40
159.0
 40
160.0
 40
160.0
 40
160.0
 40
161.0
 40
161.0
 40
161.0
 40
162.0
 40
162.0
 40
162.0
 40
163.0
 40
163.0
 40
163.0
 40
164.0
 40
164.0
 40
164.0
 40
165.0
 40
165.0
 40
165.0
 40
166.0
 40
166.0
 40
166.0
 40
167.0
 40
167.0
 40
167.0
 40
168.0
 40
168.0
 40
168.0
 40
169.0
 40
169.0
 40
169.0
 40
170.0
 40
170.0
 40
170.0
 40
171.0
 40
171.0
 40
171.0
 40
172.0
 40
172.0
 40
172.0
 40
173.0
 40
173.0
 40
173.0
 40
174.0
 40
174.0
 40
174.0
 40
175.0
 40
175.0
 40
175.0
 40
176.0
 40
176.0
 40
176.0
 40
177.0
 40
177.0
 40
177.0
 40
178.0
 40
178.0
 40
178.0
 40
179.0
 40
179.0
 40
179.0
 40
180.0
 40
180.0
 40
180.0
 40
181.0
 40
181.0
 40
181.0
 40
182.0
 40
182.0
 40
182.0
 40
183.0
 40
183.0
 40
183.0
 40
184.0
 40
184.0
 40
184.0
 40
185.0
 40
185.0
 40
185.0
 40
186.0
 40
186.0
 40
186.0
 40
187.0
 40
187.0
 40
187.0
 40
188.0
 40
188.0
 40
188.0
 40
189.0
 40
189.0
 40
189.0
 40
190.0
 40
190.0
 40
190.0
 40
191.0
 40
191.0
 40
191.0
 40
192.0
 40
192.0
 40
192.0
 40
193.0
 40
193.0
 40
193.0
 40
194.0
 40
194.0
 40
194.0
 40
195.0
 40
195.0
 40
195.0
 40
196.0
 40
196.0
 40
196.0
 40
197.0
 40
197.0
 40
197.0
 40
198.0
 40
198.0
 40
198.0
 40
199.0
 40
199.0
 40
199.0
 40
200.0
 40
200.0
 40
200.0
 40
201.0
 40
201.0
 40
201.0
 40
202.0
 40
202.0
 40
202.0
 40
203.0
 40
203.0
 40
203.0
 40
204.0
 40
204.0
 40
204.0
 40
205.0
 40
205.0
 40
205.0
 40
206.0
 40
206.0
 40
206.0
 40
207.0
 40
207.0
 40
207.0
 40
208.0
 40
208.0
 40
208.0
 40
209.0
 40
209.0
 40
209.0
 40
210.0
 40
210.0
 40
210.0
 40
211.0
 40
211.0
 40
211.0
 40
212.0
 40
212.0
 40
212.0
 40
213.0
 40
213.0
 40
213.0
 40
214.0
 40
214.0
 40
214.0
 40
215.0
 40
215.0
 40
215.0
 40
216.0
 40
216.0
 40
216.0
 40
217.0
 40
217.0
 40
217.0
 40
218.0
 40
218.0
 40
218.0
 40
219.0
 40
219.0
 40
219.0
 40
220.0
 40
220.0
 40
220.0
 40
221.0
 40
221.0
 40
221.0
 40
222.0
 40
222.0
 40
222.0
 40
223.0
 40
223.0
 40
223.0
 40
224.0
 40
224.0
 40
224.0
 40
225.0
 40
225.0
 40
225.0
 40
226.0
 40
226.0
 40
226.0
 40
227.0
 40
227.0
 40
227.0
 40
228.0
 40
228.0
 40
228.0
 40
229.0
 40
229.0
 40
229.0
 40
230.0
 40
230.0
 40
230.0
 40
231.0
 40
231.0
 40
231.0
 40
232.0
 40
232.0
 40
232.0
 40
233.0
 40
233.0
 40
233.0
 40
234.0
 40
234.0
 40
234.0
 40
235.0
 40
235.0
 40
235.0
 40
236.0
 40
236.0
 40
236.0
 40
237.0
 40
237.0
 40
237.0
 40
238.0
 40
238.0
 40
238.0
 40
239.0
 40
239.0
 40
239.0
 40
240.0
 40
240.0
 40
240.0
 40
241.0
 40
241.0
 40
241.0
 40
242.0
 40
242.0
 40
242.0
 40
243.0
 40
243.0
 40
243.0
 40
244.0
 40
244.0
 40
244.0
 40
245.0
 40
245.0
 40
245.0
 40
246.0
 40
246.0
 40
246.0
 40
247.0
 40
247.0
 40
247.0
 40
248.0
 40
248.0
 40
248.0
 40
249.0
 40
249.0
 40
249.0
 40
250.0
 40
250.0
 40
250.0
 40
251.0
 40
251.0
 40
251.0
 40
252.0
 40
252.0
 40
252.0
 40
253.0
 40
253.0
 40
253.0
 40
254.0
 40
254.0
 40
254.0
 40
255.0
 40
255.0
 40
255.0
 40
256.0
 40
256.0
 40
256.0
 40
257.0
 40
257.0
 40
257.0
 40
257.0
 10
702.0457822648314
 20
-475.8706000000002
 10
701.4099999999999
 20
-474.4727000000003
 10
700.9211822932411
 20
-473.0105999999996
 10
700.647182300163
 20
-471.4586999999992
 10
694.9521824440308
 20
-467.1934000000001
 10
689.3140825864612
 20
-462.8521000000001
 10
683.0937827435991
 20
-459.3194999999996
 10
680.0888828195093
 20
-457.6129000000001
 10
677.2624828909102
 20
-455.6605
 10
674.6651829565235
 20
-453.4375999999993
 10
674.6605829566397
 20
-453.0445999999993
 10
674.5261829600349
 20
-452.6399000000001
 10
674.1936829684346
 20
-452.2731999999996
 10
671.1521830452693
 20
-448.9202999999998
 10
668.1104831221091
 20
-445.5674999999992
 10
665.0686831989515
 20
-442.2145
 10
662.8838832541442
 20
-438.5308999999997
 10
659.801883332002
 20
-435.4423999999999
 10
656.3862834182873
 20
-432.9056999999993
 10
651.0136835540106
 20
-428.9153999999999
 10
645.9771836812433
 20
-424.6875999999993
 10
641.4491837956302
 20
-419.8793999999998
 10
635.55578394451
 20
-413.6214999999993
 10
628.5663841210771
 20
-410.9483
 10
620.0830000000005
 20
-411.8709999999992
 10
615.4921844513592
 20
-412.3703999999998
 10
612.1084845368387
 20
-410.1376
 10
610.203684584958
 20
-406.2893999999997
 10
607.4592846542873
 20
-400.7448999999997
 10
602.6488847758083
 20
-396.7309999999998
 10
597.6626849017703
 20
-393.2610000000004
 10
593.2099999999991
 20
-390.1623999999993
 10
586.510785183491
 20
-387.2821999999996
 10
583.3902852623214
 20
-382.7260000000006
 10
582.132885294086
 20
-380.8901000000005
 10
580.3314853395932
 20
-379.3772000000008
 10
579.3361853647366
 20
-377.3492000000006
 10
576.2717854421498
 20
-371.1053000000002
 10
570.6967855829862
 20
-368.3199000000004
 10
564.607085736825
 20
-365.8809000000001
 10
562.0232858020972
 20
-364.8459999999995
 10
560.1536858493273
 20
-362.9062999999996
 10
558.4632858920304
 20
-360.7635
 10
556.6458859379418
 20
-358.4597999999996
 10
554.7478859858893
 20
-356.5140000000001
 10
552.7586860361407
 20
-354.4053000000004
 10
550.8676860839114
 20
-352.4007000000001
 10
550.2181861003191
 20
-349.2605999999996
 10
548.4781861442752
 20
-346.9919
 10
546.3950861968988
 20
-344.2761
 10
543.771386263179
 20
-342.0113000000001
 10
541.0744863313084
 20
-339.9274000000005
 10
536.7360864409056
 20
-336.5747000000001
 10
532.5008865478958
 20
-333.1540999999997
 10
528.902
 20
-328.9795999999997
 10
526.3270867038591
 20
-325.9929000000002
 10
523.9756867632605
 20
-324.0962
 10
520.1658868595041
 20
-326.3720999999996
 10
517.0460869383169
 20
-328.2358999999997
 10
514.104287012633
 20
-330.3969999999999
 10
511.3917870811565
 20
-332.8152
 10
510.1873871115822
 20
-333.8891999999996
 10
509.0387871405983
 20
-334.9802
 10
508.0415871657897
 20
-336.2394000000004
 10
507.132387188758
 20
-337.3874999999998
 10
506.4000872072575
 20
-339.5106999999998
 10
505.3331872342096
 20
-340.4143000000004
 10
499.8230873734065
 20
-345.0628999999999
 10
493.1746875413592
 20
-348.2021999999997
 10
487.6563876807631
 20
-352.8422
 10
485.8446877265305
 20
-354.3657000000003
 10
483.8050877780552
 20
-353.8576000000003
 10
482.5603878094989
 20
-351.6540000000005
 10
478.9572879005209
 20
-345.2755999999999
 10
473.9004880282664
 20
-340.1148000000003
 10
468.8544881557391
 20
-334.9094999999998
 10
467.7046881847855
 20
-333.7236000000003
 10
466.5020882151657
 20
-332.6868000000004
 10
465.165688248926
 20
-331.9332000000004
 10
460.9529999999995
 20
-329.5578000000005
 10
457.6390884390639
 20
-326.1116000000002
 10
452.22718857578
 20
-326.8285999999998
 10
452.0720000000001
 20
-326.6557000000003
 10
451.8863885843894
 20
-326.4889999999996
 10
451.6957885892043
 20
-326.3185000000003
 10
444.893088761055
 20
-320.2359999999999
 10
439.1659999999993
 20
-313.1328000000003
 10
432.9641890624043
 20
-306.4812000000002
 10
431.4563891004946
 20
-304.8639999999996
 10
430.4446891260523
 20
-302.7954
 10
429.0556891611413
 20
-301.0535
 10
426.5532892243573
 20
-297.9160000000002
 10
422.9860893144723
 20
-296.4403000000002
 10
419.4317894042615
 20
-294.8032999999996
 10
412.8308895710143
 20
-291.7633999999998
 10
407.0575897168601
 20
-287.3289999999997
 10
401.2262898641711
 20
-283.0527000000002
 10
392.6572900806423
 20
-276.7686999999996
 10
385.0261902734201
 20
-269.6391000000003
 10
379.9224904023504
 20
-260.0542999999998
 10
377.5715904617391
 20
-255.6391999999996
 10
374.0420905509018
 20
-255.5123999999996
 10
370.1037906503916
 20
-259.3530000000001
 10
363.3000000000002
 20
-265.9880000000003
 10
357.0882909791908
 20
-273.1814999999997
 10
351.1570000000002
 20
-280.5888999999997
 10
347.6314912180896
 20
-284.9917000000005
 10
343.632091319123
 20
-288.7736999999997
 10
339.1356914327116
 20
-292.1176999999998
 10
338.1608914573371
 20
-292.8428000000004
 10
337.2197914811113
 20
-293.6127999999999
 10
336.2826915047845
 20
-294.3887000000004
 10
331.046291637067
 20
-297.0018
 10
326.6422917483214
 20
-300.7169000000004
 10
323.1334918369612
 20
-305.5339999999997
 10
322.9198918423572
 20
-305.8270000000002
 10
322.8273918446939
 20
-306.1163999999999
 10
322.8111918451032
 20
-306.3917000000001
 10
318.5429999999997
 20
-310.1921000000002
 10
314.5891920528084
 20
-314.0312999999996
 10
311.38789213368
 20
-318.6174000000001
 10
306.209192264505
 20
-326.0357999999997
 10
300.8940000000002
 20
-333.3747999999996
 10
296.0705925206275
 20
-341.0209999999997
 10
290.9663926495705
 20
-349.1121999999996
 10
283.5886928359469
 20
-354.9948000000004
 10
276.9586930034347
 20
-361.5753999999997
 10
272.509493115831
 20
-365.9915000000001
 10
267.5235932417854
 20
-369.9589999999998
 10
262.0438933802143
 20
-373.1466
 10
258.7423934636172
 20
-375.0672999999997
 10
255.6317935421976
 20
-374.7192999999997
 10
252.457893622377
 20
-372.4029
 10
251.025393658565
 20
-371.3572000000004
 10
249.5644936954704
 20
-370.3509999999997
 10
248.0982937325098
 20
-369.3531000000003
 10
248.0799999999999
 20
-368.8311000000003
 10
247.8490937388051
 20
-368.3100999999997
 10
247.30579375253
 20
-367.9390000000003
 10
242.8798938643376
 20
-364.9156000000003
 10
237.8227939920907
 20
-361.9683999999997
 10
233.7541940948722
 20
-358.2956999999997
 10
229.4565942034387
 20
-354.4160000000002
 10
225.1516943121896
 20
-350.4636
 10
220.8391944211326
 20
-346.5688
 10
217.9114944950925
 20
-343.9247999999998
 10
214.1162945909673
 20
-338.7221
 10
209.6859999999997
 20
-339.3577000000005
 10
207.883694748416
 20
-339.6165000000001
 10
203.7412948530618
 20
-340.9003000000002
 10
202.8984948743528
 20
-342.6985000000004
 10
202.1482948933044
 20
-344.2991000000002
 10
201.6528949058193
 20
-346.0222999999996
 10
200.8644949257359
 20
-347.6010999999999
 10
199.0908949705408
 20
-351.1522999999997
 10
196.650395032193
 20
-354.2727999999997
 10
193.5075951115869
 20
-356.6463000000003
 10
185.9981953012903
 20
-362.3173999999999
 10
180.0442954516984
 20
-369.7075000000004
 10
173.2017956245545
 20
-376.1097000000009
 10
165.7868958118706
 20
-383.0475000000006
 10
156.6668960422612
 20
-387.3534999999993
 10
148.5740962467025
 20
-393.4069999999992
 10
146.8065962913533
 20
-393.8394000000008
 10
145.5988963218624
 20
-396.0022000000008
 10
143.6712963705577
 20
-396.2813000000006
 10
139.8230964677714
 20
-396.8384000000005
 10
136.297596556833
 20
-398.6329000000005
 10
133.0071966399555
 20
-400.9015999999992
 10
127.5238967784753
 20
-404.6823000000004
 10
126.2235968113237
 20
-411.5224999999991
 10
121.6325969273021
 20
-416.0197000000007
 10
120.3742969590894
 20
-417.2520999999997
 10
119.2037969886587
 20
-418.6298000000006
 10
117.8645970224898
 20
-419.7425999999996
 10
116.736297050993
 20
-420.6805000000004
 10
115.2038970897047
 20
-421.2273999999998
 10
114.1653971159394
 20
-422.2659000000003
 10
111.8503971744212
 20
-424.1165000000001
 10
109.5373972328525
 20
-425.9701999999997
 10
107.1964972919886
 20
-427.7880000000005
 10
102.7322974047638
 20
-431.2548000000006
 10
98.15110000000004
 20
-433.8531000000003
 10
93.17479999999978
 20
-436.5208000000002
 10
83.89750000000004
 20
-441.4935999999998
 10
75.32229999999981
 20
-447.1051000000007
 10
69.8145999999997
 20
-456.5411999999997
 10
66.32300000000032
 20
-462.5228000000006
 10
61.79309999999987
 20
-467.8739999999998
 10
57.8698000000004
 20
-473.5658000000003
 10
54.68040000000019
 20
-478.1929
 10
51.94380000000001
 20
-483.1967999999997
 10
47.95420000000013
 20
-487.5517999999993
 10
48.71309999999994
 20
-487.9089999999997
 10
49.0594000000001
 20
-488.2214999999997
 10
49.26260000000002
 20
-488.1461999999992
 10
56.51699999999983
 20
-485.4567999999999
 10
64.02639999999974
 20
-486.357
 10
71.45030000000042
 20
-486.7191000000003
 10
78.0001000000002
 20
-487.0385000000006
 10
82.57800000000043
 20
-483.7739000000001
 10
87.40940000000046
 20
-479.8651000000009
 10
91.67950000000019
 20
-476.4107000000004
 10
97.16430000000037
 20
-473.3086999999996
 10
101.9643974241626
 20
-470.6178
 10
103.8968973753435
 20
-469.5346000000009
 10
106.4473973109125
 20
-469.0638999999992
 10
108.2324972658171
 20
-467.8402000000006
 10
109.8943972238339
 20
-466.7011999999995
 10
110.9198971979276
 20
-464.5331000000006
 10
112.5352971571192
 20
-463.2502000000004
 10
116.022897069015
 20
-460.4802
 10
118.2714970122106
 20
-456.7266999999993
 10
120.3917969586473
 20
-452.8372999999992
 10
121.4068969330037
 20
-450.9752000000008
 10
123.5110968798472
 20
-450.0308000000005
 10
125.7205968240305
 20
-449.6632000000009
 10
130.7020966981872
 20
-448.8346999999994
 10
133.896296617495
 20
-445.8955000000005
 10
136.1111965615419
 20
-441.4087
 10
138.5837964990787
 20
-436.4002999999993
 10
142.8166963921467
 20
-432.7135999999991
 10
147.1890000000003
 20
-429.3898000000008
 10
148.9936962361026
 20
-428.0177999999996
 10
151.0090961851893
 20
-425.9220000000005
 10
153.1223961318028
 20
-425.2080000000005
 10
156.1189999999997
 20
-424.1955999999991
 10
160.011395957772
 20
-424.6070999999993
 10
163.1544958783707
 20
-424.1234000000004
 10
171.1677956759377
 20
-422.8901999999998
 10
177.896195505964
 20
-418.1993999999995
 10
183.5448953632658
 20
-412.5773000000008
 10
189.6332952094599
 20
-406.5177999999996
 10
195.5692950595039
 20
-400.3307000000004
 10
199.1333949694672
 20
-392.1525999999994
 10
199.8598949511143
 20
-390.4856999999993
 10
202.2470948908085
 20
-388.4231
 10
204.3753948370431
 20
-386.884
 10
209.8831946979044
 20
-382.9009000000005
 10
215.0822945665641
 20
-378.4591999999993
 10
213.9397945954261
 20
-370.3401000000003
 10
213.60989460376
 20
-367.9967999999999
 10
214.3516945850206
 20
-365.7187999999996
 10
214.8417945726396
 20
-363.3980000000001
 10
216.3622945342286
 20
-363.0140000000001
 10
217.6822945008826
 20
-362.1334999999999
 10
217.9560944939658
 20
-360.3666000000003
 10
217.9718944935667
 20
-360.2636000000002
 10
217.9752944934808
 20
-360.1620000000003
 10
217.9799999999996
 20
-360.0604999999996
 10
219.0414944665463
 20
-358.6707999999999
 10
219.8693944456318
 20
-359.1926000000003
 10
222.8298943708432
 20
-361.0999000000002
 10
222.926094368413
 20
-361.1619000000001
 10
223.0
 20
-361.2075999999997
 10
223.0852943643913
 20
-361.2623000000003
 10
225.1220943129374
 20
-363.3333000000002
 10
227.374294256042
 20
-365.1049999999996
 10
229.8210941942307
 20
-366.5793999999996
 10
238.9436939637744
 20
-374.2448999999997
 10
248.2240000000002
 20
-381.5954000000002
 10
259.3165934491117
 20
-386.4531000000006
 10
265.8260932846679
 20
-389.3035
 10
270.302393171587
 20
-394.3394000000008
 10
271.2892931466558
 20
-401.8425999999999
 10
271.8253931331128
 20
-405.9179000000004
 10
274.0075930779858
 20
-409.5143000000007
 10
276.0111930273706
 20
-413.0185999999994
 10
277.1306929990897
 20
-414.9791000000005
 10
277.3102929945526
 20
-419.2304999999997
 10
280.0003929265949
 20
-419.7257000000009
 10
280.7310929081359
 20
-419.8600999999999
 10
281.5550928873199
 20
-419.902
 10
282.0674928743756
 20
-420.4398999999994
 10
282.4690000000001
 20
-420.8611999999994
 10
282.5654928617951
 20
-421.4766
 10
282.6923928585893
 20
-422.0445999999993
 10
283.628192834949
 20
-426.2288000000008
 10
286.9951927498914
 20
-428.2896999999994
 10
290.153692670101
 20
-430.7355000000007
 10
300.3962924113512
 20
-438.6666999999998
 10
307.5507922306133
 20
-451.3958999999995
 10
319.5559999999996
 20
-456.8055000000004
 10
325.5739999999996
 20
-459.5172000000002
 10
330.5380916499053
 20
-463.9249999999993
 10
335.5183915240923
 20
-468.1566000000003
 10
344.1702913055269
 20
-475.5077000000001
 10
353.3632910732922
 20
-484.1000000000004
 10
363.9399999999996
 20
-488.5553999999993
 10
365.4493907679716
 20
-489.1911
 10
367.4918907163737
 20
-490.8636000000006
 10
368.6456906872263
 20
-489.0743000000002
 10
369.6935906607541
 20
-487.4488999999994
 10
368.2056906983416
 20
-485.4482000000007
 10
366.8130000000001
 20
-484.0938000000006
 10
364.4395907934813
 20
-481.7857000000004
 10
362.0575908536557
 20
-479.4678999999996
 10
359.5016909182232
 20
-477.3708000000006
 10
357.2791909743682
 20
-475.5473000000002
 10
356.3632909975058
 20
-473.1625000000004
 10
355.6614910152348
 20
-470.4696999999996
 10
354.8262910363337
 20
-467.2659000000003
 10
355.8344910108644
 20
-465.3261000000002
 10
357.9930000000004
 20
-462.8413
 10
360.5853908908466
 20
-459.8574000000008
 10
361.6228908646372
 20
-456.2981
 10
362.7652908357777
 20
-452.5719000000008
 10
363.5001908172126
 20
-450.1754000000001
 10
364.9060907816965
 20
-448.0517999999993
 10
367.0346907279236
 20
-446.6774999999998
 10
369.3897906684288
 20
-445.1571999999996
 10
372.3763905929809
 20
-445.1010999999999
 10
374.6790905348098
 20
-443.4907000000003
 10
380.31479039244
 20
-439.5491000000002
 10
383.3776903150647
 20
-430.3189999999995
 10
383.7569999999996
 20
-423.8307000000004
 10
384.154690295436
 20
-417.0264000000006
 10
384.8289999999997
 20
-410.2441999999992
 10
385.1552902701587
 20
-403.4410000000007
 10
385.2466902678498
 20
-401.5362000000005
 10
385.9690902496004
 20
-399.5910000000003
 10
387.7323902050557
 20
-398.6561000000002
 10
388.9815901734983
 20
-397.9940000000006
 10
390.4138901373153
 20
-397.7932999999994
 10
391.7810901027769
 20
-397.4318999999996
 10
396.4712899842925
 20
-396.1923000000006
 10
394.6384900305929
 20
-391.8565999999992
 10
395.47939000935
 20
-388.4953999999998
 10
395.116
 20
-389.9483
 10
398.1371899422084
 20
-388.6622000000007
 10
398.3503899368225
 20
-388.5339000000004
 10
400.74418987635
 20
-387.0931
 10
402.8240000000005
 20
-383.9431000000004
 10
405.8449999999993
 20
-383.7445000000007
 10
408.6087896776735
 20
-383.5630000000001
 10
410.4706896306379
 20
-386.4670000000006
 10
411.8995895945409
 20
-388.4177
 10
414.4726895295389
 20
-391.9307000000008
 10
417.2735894587822
 20
-395.2073
 10
420.889289367442
 20
-397.8611000000001
 10
428.6177891722036
 20
-403.5332999999991
 10
434.4494890248825
 20
-410.7394000000004
 10
437.0220000000008
 20
-420.2101000000002
 10
437.5000889478179
 20
-421.9699999999993
 10
438.8311889141914
 20
-425.1430999999993
 10
439.6114888944794
 20
-426.7633000000005
 10
442.7884888142216
 20
-433.3600999999999
 10
445.2937887509324
 20
-440.2713000000003
 10
448.8821886602818
 20
-446.6787000000004
 10
449.4187886467262
 20
-447.6370000000006
 10
453.9259999999995
 20
-455.0319999999992
 10
456.3651884712453
 20
-455.3245999999999
 10
457.1757884507679
 20
-455.4218999999994
 10
457.6760884381292
 20
-455.2240999999995
 10
457.6228884394732
 20
-454.1874000000007
 10
457.4314884443083
 20
-450.4595000000008
 10
454.4808885188468
 20
-448.2455000000009
 10
452.7465885626589
 20
-445.3873999999996
 10
452.3495885726879
 20
-444.7332000000006
 10
451.8155885861779
 20
-442.0259999999998
 10
451.0612886052331
 20
-439.6294999999991
 10
448.2300886767553
 20
-430.6360000000004
 10
444.8250000000007
 20
-421.9264999999996
 10
440.4101888743025
 20
-413.5517999999993
 10
439.2448889037405
 20
-411.3412000000008
 10
439.0210889093942
 20
-408.3902999999991
 10
437.745788941611
 20
-405.9881999999998
 10
435.439288999878
 20
-401.6442000000006
 10
431.4730891000727
 20
-398.7021999999997
 10
428.1920891829577
 20
-395.2474999999995
 10
421.7232893463733
 20
-388.4362000000001
 10
416.2453894847567
 20
-381.4709999999995
 10
417.7172894475734
 20
-371.2210999999998
 10
418.9760000000006
 20
-370.8348999999998
 10
419.6556893986053
 20
-372.0613000000003
 10
420.5327893764479
 20
-372.6853000000001
 10
426.6392892221847
 20
-377.0290999999997
 10
432.9932890616692
 20
-381.0908999999992
 10
439.8536888883609
 20
-384.1461999999992
 10
443.0506888075979
 20
-385.5699000000004
 10
445.8692887363941
 20
-386.5020999999997
 10
448.7190886644021
 20
-388.6152000000002
 10
452.9155885583896
 20
-391.7276000000002
 10
456.1722884761184
 20
-395.7541999999994
 10
460.3496883705884
 20
-398.8750999999993
 10
464.166288274173
 20
-401.7260999999999
 10
468.1498881735388
 20
-404.4794999999995
 10
470.6049999999996
 20
-408.6808999999994
 10
472.8369999999995
 20
-412.5000999999993
 10
476.4582879636509
 20
-415.2206000000006
 10
479.4246878887134
 20
-418.4249999999993
 10
482.0642878220315
 20
-421.2764999999999
 10
482.9498877996593
 20
-425.0853999999999
 10
484.3606877640195
 20
-428.5905999999995
 10
485.0768877459268
 20
-430.3700000000008
 10
485.8842877255302
 20
-432.0697999999993
 10
487.1117876945209
 20
-433.5596000000005
 10
490.6977876039309
 20
-437.9120000000003
 10
490.3924876116434
 20
-443.9788000000008
 10
492.368587561723
 20
-449.0840000000007
 10
493.5054875330025
 20
-452.0207000000009
 10
493.6485875293874
 20
-455.6211999999996
 10
495.6550000000007
 20
-458.2260999999999
 10
497.6908874272704
 20
-460.8693999999996
 10
499.3147873862472
 20
-463.7988000000005
 10
500.6595873522747
 20
-466.8464000000004
 10
501.9634873193354
 20
-469.8011999999999
 10
502.4303873075405
 20
-473.5881000000008
 10
505.0830872405277
 20
-475.6023000000005
 10
506.223
 20
-476.4681
 10
507.3628871829351
 20
-477.3336999999992
 10
508.5026871541413
 20
-478.1995000000006
 10
509.2189999999991
 20
-480.0661
 10
510.4615871046553
 20
-481.8826000000008
 10
511.9676870666081
 20
-483.7684000000008
 10
512.6873870484269
 20
-476.2487000000001
 10
508.9752871422024
 20
-469.6170999999995
 10
505.7193872244534
 20
-463.1483000000007
 10
501.3728873342552
 20
-454.5128999999997
 10
500.740287350236
 20
-445.0409999999993
 10
499.0947873918049
 20
-435.6309999999994
 10
501.1862873389691
 20
-435.5956000000006
 10
502.5623873042059
 20
-436.6682000000001
 10
503.7887872732244
 20
-437.6064000000006
 10
510.8712870943054
 20
-443.0244999999995
 10
518.5438869004793
 20
-447.8330000000005
 10
523.2157867824571
 20
-455.8418000000001
 10
524.2145867572253
 20
-457.5540999999994
 10
525.9881867124204
 20
-458.4423999999999
 10
527.7511866678833
 20
-459.1438999999991
 10
531.723
 20
-460.7242000000006
 10
534.9533864859404
 20
-463.0917000000009
 10
537.2905864268978
 20
-466.7700999999997
 10
538.7895863890299
 20
-469.1291000000001
 10
540.67738634134
 20
-470.4434999999994
 10
543.2210862770808
 20
-471.3552999999993
 10
546.2367862008978
 20
-472.4359999999997
 10
549.0110000000004
 20
-474.0763999999999
 10
552.0095860550646
 20
-475.2054000000007
 10
555.7037859617412
 20
-476.5964000000004
 10
559.4257858677156
 20
-476.7348999999995
 10
563.0451857762819
 20
-475.0514000000003
 10
564.1980857471572
 20
-474.5152999999991
 10
563.8288857564839
 20
-472.6510999999991
 10
562.1885857979214
 20
-471.9398000000001
 10
559.4785858663818
 20
-470.7644
 10
556.839485933051
 20
-469.3775999999998
 10
554.047086003593
 20
-468.4519999999993
 10
550.1965861008648
 20
-467.1754000000001
 10
546.930186183381
 20
-464.8611000000001
 10
544.6490862410064
 20
-461.8233999999993
 10
540.9997863331955
 20
-456.9635999999991
 10
536.284686452309
 20
-453.6362000000008
 10
531.4490865744665
 20
-450.2152999999998
 10
525.9871867124457
 20
-446.3513999999996
 10
521.3957868284342
 20
-441.3891999999996
 10
518.5620869000195
 20
-435.3294000000005
 10
516.3784869551819
 20
-430.6599999999999
 10
512.9532870417097
 20
-428.1951000000008
 10
508.3724871574304
 20
-426.7379000000001
 10
505.3482872338282
 20
-425.7757999999994
 10
502.3180873103775
 20
-424.8256000000001
 10
499.675887377125
 20
-423.1741000000002
 10
487.8867876749428
 20
-412.5352000000003
 10
478.7724879051893
 20
-399.2489999999998
 10
466.5114882149282
 20
-389.0993999999992
 10
459.7812883849474
 20
-383.5280000000002
 10
452.6626885647784
 20
-377.8060999999998
 10
444.3505887747597
 20
-374.1436999999996
 10
437.8855889380793
 20
-371.2952999999998
 10
431.2353891060775
 20
-368.5519999999997
 10
426.7692892189007
 20
-362.5730999999996
 10
426.6906892208863
 20
-362.4678999999996
 10
426.5920892233771
 20
-362.3528999999999
 10
426.483789226113
 20
-362.2402000000002
 10
426.411389227942
 20
-362.1477000000004
 10
426.340889229723
 20
-362.0542000000005
 10
426.2684892315519
 20
-361.9616999999998
 10
425.6702892466637
 20
-361.1977999999999
 10
425.0150892632155
 20
-360.4709000000003
 10
424.2490892825663
 20
-359.9143999999997
 10
424.1956892839153
 20
-359.8434999999999
 10
424.1406892853047
 20
-359.7725
 10
424.0691892871109
 20
-359.7025999999996
 10
421.4193893540505
 20
-357.1167000000005
 10
418.3443894317315
 20
-355.0357000000004
 10
414.8096895210256
 20
-353.8738999999996
 10
410.9625896182115
 20
-352.6095999999998
 10
405.2375897628372
 20
-355.6161000000002
 10
402.9477898206824
 20
-359.8885
 10
402.7295898261946
 20
-360.2957999999999
 10
402.7790898249441
 20
-360.9200000000001
 10
402.477889832553
 20
-361.1985999999997
 10
398.0740899438024
 20
-365.2736000000004
 10
395.189390016676
 20
-370.6280999999999
 10
391.2047901173355
 20
-375.0667999999996
 10
386.4940000000006
 20
-380.3140000000003
 10
380.8066903800136
 20
-381.1229000000003
 10
374.9340000000002
 20
-384.4063999999998
 10
370.6400906368435
 20
-386.8068000000003
 10
368.1874906988014
 20
-392.0413000000008
 10
364.9813907797943
 20
-395.6409000000003
 10
361.0105908801052
 20
-400.0992999999999
 10
357.388890971597
 20
-404.9366000000009
 10
355.8266910110615
 20
-410.7960999999996
 10
355.2793910248874
 20
-412.8487999999998
 10
353.7821910627099
 20
-414.4811000000009
 10
352.2688911009391
 20
-415.9375999999993
 10
349.3856911737748
 20
-418.7124000000003
 10
346.0201912587945
 20
-420.8125
 10
342.4586913487656
 20
-422.6285000000007
 10
341.1991913805832
 20
-423.2707000000009
 10
339.7787914164655
 20
-423.9491999999991
 10
338.9444914375417
 20
-425.0131000000001
 10
334.9536915383578
 20
-430.1016999999993
 10
328.6265916981938
 20
-431.6198000000004
 10
323.6898918229053
 20
-435.2430000000004
 10
321.617791875251
 20
-436.7636999999995
 10
319.9059999999999
 20
-436.5565999999999
 10
317.9013919691351
 20
-434.3734000000004
 10
315.080892040387
 20
-431.3017
 10
311.4189999999999
 20
-429.2116999999998
 10
309.783592174208
 20
-424.8701000000001
 10
308.9030921964513
 20
-422.5324999999993
 10
308.4163922087464
 20
-421.3140000000003
 10
308.8828921969616
 20
-420.4549999999999
 10
312.2472921119697
 20
-419.8042999999998
 10
315.4965920298855
 20
-418.7572999999993
 10
318.6567919500521
 20
-417.2896000000001
 10
320.053591914766
 20
-416.6407999999992
 10
319.6901919239463
 20
-415.0432999999994
 10
318.6754919495797
 20
-414.3562000000002
 10
323.3927918304107
 20
-406.4298999999992
 10
327.9331917157106
 20
-399.0804000000007
 10
329.7671916693798
 20
-390.4259999999995
 10
331.5974916231426
 20
-381.7880000000005
 10
331.1035916356195
 20
-372.8314
 10
333.2955915802449
 20
-364.2223000000004
 10
334.4282915516305
 20
-359.7734
 10
335.962191512881
 20
-355.9074000000001
 10
339.9721914115798
 20
-352.9587000000001
 10
343.6637913183222
 20
-350.2440999999999
 10
345.6558912679975
 20
-345.7772999999997
 10
348.419891198173
 20
-342.1032999999998
 10
349.3104911756745
 20
-340.9193999999998
 10
349.2978911759928
 20
-339.3487000000005
 10
349.1877911787742
 20
-337.7119999999995
 10
348.7230911905135
 20
-330.8028999999997
 10
349.3962911735071
 20
-322.7510000000002
 10
355.3506910230863
 20
-318.3256000000001
 10
359.1952909259635
 20
-315.4684999999999
 10
362.1883908503514
 20
-311.4874
 10
363.8828908075448
 20
-307.0083999999997
 10
365.6554907627651
 20
-302.3238000000001
 10
365.2124907739562
 20
-297.3085000000001
 10
368.723290685266
 20
-293.3347999999996
 10
371.8776906055791
 20
-289.7644
 10
374.5305905385612
 20
-285.8505999999998
 10
375.4470905154085
 20
-281.0267999999996
 10
375.8352905056017
 20
-278.9839000000002
 10
377.3253904679586
 20
-277.6620000000003
 10
378.8814904286482
 20
-276.6940999999997
 10
382.146190346175
 20
-274.6665000000003
 10
388.253790191884
 20
-283.1135000000004
 10
390.3469999999998
 20
-284.9084000000003
 10
397.2900000000009
 20
-290.8617999999997
 10
404.8302897731264
 20
-296.2689
 10
412.3394895834281
 20
-301.4780000000001
 10
415.2732895093141
 20
-303.5132000000003
 10
418.5252894271616
 20
-305.1184000000003
 10
421.6383893485181
 20
-306.8634000000002
 10
426.1477892346011
 20
-309.3910999999998
 10
428.7971891676716
 20
-314.3145999999997
 10
432.1180890837786
 20
-318.1977999999999
 10
433.6397890453372
 20
-319.9772000000003
 10
433.5308890480883
 20
-321.3444
 10
431.0424891109506
 20
-321.2478000000001
 10
424.5062892760689
 20
-320.9946
 10
419.3061894074344
 20
-324.5448999999999
 10
413.6793895495794
 20
-326.9025000000001
 10
412.0461895908375
 20
-327.5869000000002
 10
410.4800896304005
 20
-328.3774000000003
 10
409.7744896482254
 20
-330.7906999999996
 10
413.09508956434
 20
-330.4098999999997
 10
416.120289487917
 20
-330.2390999999998
 10
419.0717894133559
 20
-329.6787999999997
 10
422.6620000000003
 20
-328.9975999999997
 10
426.0465892371576
 20
-330.2839999999997
 10
429.4290000000001
 20
-331.3040000000001
 10
433.1730890571271
 20
-332.4332999999997
 10
436.7858889658601
 20
-332.3710000000001
 10
440.62958886876
 20
-332.8046999999997
 10
448.7263886642177
 20
-333.7177000000001
 10
457.997288430015
 20
-335.5843999999997
 10
463.5011882909748
 20
-341.9058999999997
 10
469.0891881498101
 20
-348.3242
 10
473.8736880289434
 20
-355.3082000000004
 10
478.3453879159788
 20
-362.5429999999997
 10
482.1273878204374
 20
-368.6619000000001
 10
486.2068877173806
 20
-374.5983999999999
 10
490.2268876158269
 20
-380.5669999999991
 10
490.8452876002048
 20
-381.4848999999995
 10
491.7056875784692
 20
-382.9488000000001
 10
492.9507875470154
 20
-382.3417000000009
 10
494.1667875162966
 20
-381.7487000000001
 10
493.4444875345434
 20
-380.1977999999999
 10
493.234587539846
 20
-379.1165000000001
 10
492.9867875461059
 20
-377.8408999999992
 10
492.6345875550032
 20
-376.6059999999998
 10
492.8817875487584
 20
-374.9709000000003
 10
498.9573873952759
 20
-376.2744000000002
 10
504.1068872651886
 20
-379.2340999999997
 10
508.0290871661055
 20
-383.6046999999999
 10
517.6168869238973
 20
-394.2890000000007
 10
526.1873867073882
 20
-405.8233
 10
535.0176864843161
 20
-417.1394
 10
537.1822864296337
 20
-419.9135000000006
 10
538.2077864037274
 20
-422.9421999999995
 10
539.258386377187
 20
-426.0743000000002
 10
540.3641863492521
 20
-429.3713000000007
 10
541.759
 20
-432.4972999999991
 10
544.1262862542135
 20
-435.0707000000002
 10
547.7011861639039
 20
-438.9567000000006
 10
549.5917861161433
 20
-443.9037000000008
 10
552.5458860415165
 20
-448.1762999999992
 10
553.2082860247829
 20
-449.1344000000008
 10
553.6917860125686
 20
-450.2916999999998
 10
555.2533859731193
 20
-450.2543000000005
 10
555.9369999999999
 20
-448.6470000000008
 10
555.7551859604428
 20
-446.5954000000002
 10
555.0328859786896
 20
-445.5642000000007
 10
551.5913860656292
 20
-440.6504000000004
 10
551.6461860642448
 20
-434.7764000000006
 10
550.0546861044495
 20
-429.3747999999996
 10
549.444186119872
 20
-427.3024000000005
 10
549.268
 20
-425.9429
 10
549.7053861132736
 20
-425.0578999999998
 10
551.325186072354
 20
-425.2286999999997
 10
552.9447860314394
 20
-425.3994999999995
 10
554.5644859905224
 20
-425.5702000000001
 10
559.9723858539073
 20
-428.1612000000005
 10
565.0553857255
 20
-431.3963000000003
 10
570.7365855819808
 20
-433.4410000000007
 10
574.6921854820539
 20
-434.8644000000004
 10
578.2261853927776
 20
-436.9573999999993
 10
581.1468853189945
 20
-440.0596000000005
 10
584.4979999999996
 20
-443.6190999999999
 10
588.4976851332976
 20
-446.3215
 10
592.6552850282678
 20
-448.8757000000005
 10
593.7580850004088
 20
-449.5532999999996
 10
594.0954849918853
 20
-451.5380000000005
 10
594.6972849766826
 20
-452.9593999999997
 10
596.6088849283915
 20
-457.4735999999994
 10
597.2905849111703
 20
-462.2952999999998
 10
598.1319999999996
 20
-467.0727999999999
 10
598.6654848764374
 20
-470.1021000000001
 10
599.4635848562757
 20
-473.0154000000002
 10
602.0972847897428
 20
-476.2440000000006
 10
601.2046848122918
 20
-468.9027000000006
 10
599.6554848514279
 20
-462.4459000000006
 10
599.6093848525925
 20
-455.357
 10
605.0590847149215
 20
-458.3225999999995
 10
610.74908457118
 20
-459.6908999999996
 10
614.3377844805218
 20
-464.8845999999994
 10
616.0217844379804
 20
-467.3215
 10
619.2128843573664
 20
-468.3984
 10
621.7822842924579
 20
-469.9410000000007
 10
625.1001842086407
 20
-471.9328000000005
 10
628.5463841215824
 20
-473.4094999999998
 10
632.0226840337637
 20
-474.8521000000001
 10
635.8251839377044
 20
-476.4302000000007
 10
639.8424838362189
 20
-477.4573
 10
644.3086837233932
 20
-477.5046000000002
 10
643.6753837393917
 20
-475.2921000000006
 10
641.8347837858892
 20
-474.6797000000006
 10
640.4165838217159
 20
-473.9351999999999
 10
628.919684112152
 20
-467.8986999999997
 10
618.9804843632373
 20
-459.8274999999994
 10
609.8389999999999
 20
-450.7212
 10
606.9982846659332
 20
-447.8916000000008
 10
604.4441847304552
 20
-444.7751000000007
 10
601.7461847986124
 20
-441.8014999999996
 10
596.7360000000008
 20
-436.2792000000009
 10
592.1283850415784
 20
-430.4037000000008
 10
585.9584851974432
 20
-425.9776999999995
 10
580.5736853334747
 20
-422.1147999999994
 10
576.8546854274246
 20
-416.4995999999992
 10
572.359085540993
 20
-411.7091999999993
 10
566.8095856811851
 20
-405.7957999999999
 10
559.9616858541776
 20
-401.5020999999997
 10
554.1316860014558
 20
-395.9937000000009
 10
546.9861861819663
 20
-389.2422999999999
 10
538.4942863964898
 20
-384.4966000000004
 10
530.2517866047128
 20
-379.3220999999994
 10
525.5384867237808
 20
-376.3631000000005
 10
524.3717867532541
 20
-370.8833999999997
 10
522.9420867893714
 20
-365.8903
 10
521.7489999999998
 20
-361.7237999999998
 10
521.7642868191251
 20
-357.4094999999998
 10
523.0706867861227
 20
-353.2493000000004
 10
524.4410000000007
 20
-348.8864000000003
 10
524.8680867407165
 20
-344.4350000000004
 10
524.826186741775
 20
-339.9177
 10
524.8134867420958
 20
-338.5528999999997
 10
524.9602867383874
 20
-337.1832999999997
 10
526.1532867082497
 20
-336.5958000000001
 10
527.4030000000002
 20
-335.9803000000002
 10
528.2617866549845
 20
-337.2972
 10
529.2052866311496
 20
-337.9629000000004
 10
536.5903864445863
 20
-343.1724000000004
 10
540.7088863405443
 20
-351.0880999999999
 10
545.9005862093909
 20
-358.1139999999996
 10
547.7240861633254
 20
-360.5812999999998
 10
549.3745861216303
 20
-363.1005000000005
 10
549.837186109944
 20
-366.2731999999996
 10
550.1315861025068
 20
-368.2916000000005
 10
551.6732860635602
 20
-369.5176000000001
 10
553.427186019253
 20
-370.4152999999997
 10
556.9050000000007
 20
-372.1953000000003
 10
560.3767858436913
 20
-373.9871000000003
 10
563.870485755433
 20
-375.7357000000002
 10
567.2227856707468
 20
-377.4135999999999
 10
570.0203856000735
 20
-379.5856999999996
 10
571.9284855518708
 20
-382.9686000000002
 10
577.0689999999995
 20
-392.0825000000004
 10
583.8527852506377
 20
-399.1206000000002
 10
594.1218849912184
 20
-402.9326999999994
 10
599.0341848671233
 20
-404.7563000000009
 10
603.1597847629018
 20
-408.9099000000006
 10
606.535384677627
 20
-413.2826000000005
 10
607.5714846514529
 20
-414.6247000000003
 10
607.9115846428613
 20
-416.3083000000006
 10
606.611784675697
 20
-417.4981000000007
 10
604.6275847258221
 20
-419.3138999999992
 10
604.6090000000004
 20
-422.2399999999998
 10
602.5688847778292
 20
-423.9588999999996
 10
601.2822848103315
 20
-425.0432999999994
 10
602.2664847854685
 20
-426.8315000000002
 10
603.8281847460166
 20
-426.5902999999998
 10
604.9541847175715
 20
-426.4164000000001
 10
606.2364846851779
 20
-424.7152000000006
 10
607.0490846646499
 20
-424.0095000000001
 10
610.7894845701594
 20
-420.7615000000005
 10
613.4712845024114
 20
-419.2042999999994
 10
618.4386843769244
 20
-419.0558000000001
 10
623.2020842565908
 20
-418.9135999999999
 10
627.3998841505454
 20
-420.4084000000003
 10
631.8106840391192
 20
-422.3889999999992
 10
643.8408837352108
 20
-427.7914999999994
 10
651.9813835295645
 20
-437.3534999999993
 10
660.4817833148263
 20
-446.7684000000008
 10
664.7049999999999
 20
-451.4457999999995
 10
668.7279999999992
 20
-456.5571999999993
 10
674.707082955465
 20
-459.3335999999999
 10
676.6193829071563
 20
-460.2216000000008
 10
677.3825828878762
 20
-461.9699999999993
 10
677.9271828741184
 20
-463.7983000000004
 10
678.8498828508091
 20
-466.8960000000006
 10
680.6823828045162
 20
-469.3696
 10
682.7086827533276
 20
-472.0344000000005
 10
683.450882734578
 20
-471.7536999999993
 10
684.2050827155254
 20
-471.5131999999994
 10
684.9752826960685
 20
-471.3397999999997
 10
684.5042827079669
 20
-468.6659
 10
682.4984827586377
 20
-466.5792000000001
 10
682.380782761611
 20
-463.8968999999997
 10
683.7433827271889
 20
-463.8449999999993
 10
684.5557827066659
 20
-464.7512000000006
 10
685.408082685135
 20
-465.3937000000005
 10
690.6635825523699
 20
-469.3552999999993
 10
695.9370824191501
 20
-473.2749000000003
 10
702.0457822648314
 20
-475.8706000000002
 97
        0
 97
        0
 92
        1
 93
        1
 72
     4
 94
        3
 73
     0
 74
     1
 95
      194
 96
      190
 40
0.0
 40
0.0
 40
0.0
 40
0.0
 40
1.0
 40
1.0
 40
1.0
 40
2.0
 40
2.0
 40
2.0
 40
3.0
 40
3.0
 40
3.0
 40
4.0
 40
4.0
 40
4.0
 40
5.0
 40
5.0
 40
5.0
 40
6.0
 40
6.0
 40
6.0
 40
7.0
 40
7.0
 40
7.0
 40
8.0
 40
8.0
 40
8.0
 40
9.0
 40
9.0
 40
9.0
 40
10.0
 40
10.0
 40
10.0
 40
11.0
 40
11.0
 40
11.0
 40
12.0
 40
12.0
 40
12.0
 40
13.0
 40
13.0
 40
13.0
 40
14.0
 40
14.0
 40
14.0
 40
15.0
 40
15.0
 40
15.0
 40
16.0
 40
16.0
 40
16.0
 40
17.0
 40
17.0
 40
17.0
 40
18.0
 40
18.0
 40
18.0
 40
19.0
 40
19.0
 40
19.0
 40
20.0
 40
20.0
 40
20.0
 40
21.0
 40
21.0
 40
21.0
 40
22.0
 40
22.0
 40
22.0
 40
23.0
 40
23.0
 40
23.0
 40
24.0
 40
24.0
 40
24.0
 40
25.0
 40
25.0
 40
25.0
 40
26.0
 40
26.0
 40
26.0
 40
27.0
 40
27.0
 40
27.0
 40
28.0
 40
28.0
 40
28.0
 40
29.0
 40
29.0
 40
29.0
 40
30.0
 40
30.0
 40
30.0
 40
31.0
 40
31.0
 40
31.0
 40
32.0
 40
32.0
 40
32.0
 40
33.0
 40
33.0
 40
33.0
 40
34.0
 40
34.0
 40
34.0
 40
35.0
 40
35.0
 40
35.0
 40
36.0
 40
36.0
 40
36.0
 40
37.0
 40
37.0
 40
37.0
 40
38.0
 40
38.0
 40
38.0
 40
39.0
 40
39.0
 40
39.0
 40
40.0
 40
40.0
 40
40.0
 40
41.0
 40
41.0
 40
41.0
 40
42.0
 40
42.0
 40
42.0
 40
43.0
 40
43.0
 40
43.0
 40
44.0
 40
44.0
 40
44.0
 40
45.0
 40
45.0
 40
45.0
 40
46.0
 40
46.0
 40
46.0
 40
47.0
 40
47.0
 40
47.0
 40
48.0
 40
48.0
 40
48.0
 40
49.0
 40
49.0
 40
49.0
 40
50.0
 40
50.0
 40
50.0
 40
51.0
 40
51.0
 40
51.0
 40
52.0
 40
52.0
 40
52.0
 40
53.0
 40
53.0
 40
53.0
 40
54.0
 40
54.0
 40
54.0
 40
55.0
 40
55.0
 40
55.0
 40
56.0
 40
56.0
 40
56.0
 40
57.0
 40
57.0
 40
57.0
 40
58.0
 40
58.0
 40
58.0
 40
59.0
 40
59.0
 40
59.0
 40
60.0
 40
60.0
 40
60.0
 40
61.0
 40
61.0
 40
61.0
 40
62.0
 40
62.0
 40
62.0
 40
63.0
 40
63.0
 40
63.0
 40
63.0
 10
318.7723919471318
 20
-478.2823000000008
 10
317.8385919707216
 20
-476.1587999999992
 10
316.8385919959837
 20
-474.3230999999996
 10
314.6554920511335
 20
-472.5534000000007
 10
313.741892074213
 20
-470.7433000000001
 10
312.2174921127225
 20
-469.1774999999998
 10
310.0612921671927
 20
-467.8294999999998
 10
301.201
 20
-462.2904999999992
 10
291.7315926302399
 20
-457.8708000000006
 10
282.7129999999997
 20
-452.6347000000005
 10
279.3474929430886
 20
-450.6807000000008
 10
276.7152930095835
 20
-447.5738999999994
 10
274.0824930760937
 20
-444.6692000000003
 10
271.2400931478987
 20
-441.5331999999999
 10
268.2681932229752
 20
-439.4575999999997
 10
264.7442933119964
 20
-437.2302
 10
255.6150935426194
 20
-431.4603000000006
 10
246.6773937684047
 20
-424.8140999999996
 10
238.758293968458
 20
-417.4699999999993
 10
238.7560000000003
 20
-417.4547999999995
 10
238.756393968506
 20
-417.4397000000008
 10
238.7539999999999
 20
-417.4246000000003
 10
238.4115939772164
 20
-415.3593000000001
 10
236.5586940240246
 20
-413.7554
 10
234.5653940743796
 20
-413.3400999999994
 10
234.5128940757058
 20
-413.3292000000001
 10
234.4646940769235
 20
-413.3305999999993
 10
234.4137940782093
 20
-413.3240000000005
 10
232.6518941227187
 20
-409.8384999999998
 10
229.2306942091454
 20
-406.8651000000009
 10
225.7237942977372
 20
-406.3544000000002
 10
223.4080943562367
 20
-406.0172000000002
 10
221.5456944032849
 20
-407.1044000000002
 10
219.9088944446339
 20
-408.5283999999992
 10
216.0678945416657
 20
-411.8698999999997
 10
212.4428946332409
 20
-415.5192000000006
 10
208.4390947343854
 20
-418.6674999999996
 10
204.3593948374473
 20
-421.8755000000001
 10
199.956094948684
 20
-425.5686999999998
 10
195.4115950634878
 20
-428.0810999999994
 10
191.1515951711044
 20
-430.4362999999994
 10
185.7288953080933
 20
-429.7950999999994
 10
181.0664954258755
 20
-429.7234000000008
 10
177.2056955234075
 20
-429.6641999999993
 10
174.1317956010607
 20
-431.0707999999995
 10
171.5822956654665
 20
-433.7818000000007
 10
167.5344957677225
 20
-438.0861000000004
 10
161.8148959122118
 20
-440.3508000000002
 10
158.0882960063536
 20
-444.7651999999998
 10
157.7736960143011
 20
-445.1380000000008
 10
154.2392961035875
 20
-445.1342000000004
 10
153.5515961209603
 20
-445.2960999999996
 10
151.9515961613797
 20
-445.6728999999996
 10
150.3971962006472
 20
-446.2453999999998
 10
148.9324962376486
 20
-446.9912999999997
 10
146.0060000000003
 20
-448.4815999999992
 10
143.9204963642624
 20
-450.7893999999997
 10
141.4510964266447
 20
-452.8646000000008
 10
135.448696578278
 20
-457.9092000000001
 10
129.8054967208373
 20
-463.3490999999995
 10
124.2223968618782
 20
-468.8490999999995
 10
123.0361968918442
 20
-470.0177000000003
 10
121.5998969281281
 20
-469.7880999999998
 10
120.7880969486359
 20
-470.6131000000005
 10
114.7500971011686
 20
-476.7491000000009
 10
106.89559729959
 20
-481.3880000000008
 10
104.1724973683813
 20
-490.3104999999996
 10
103.8744973759094
 20
-491.2867000000006
 10
103.0026973979329
 20
-492.1550999999999
 10
103.5408973843369
 20
-493.3999999999996
 10
108.4834972594763
 20
-489.1095999999998
 10
113.4710971334789
 20
-484.9326999999994
 10
118.2489999999998
 20
-480.5282999999999
 10
120.223096962909
 20
-478.7085000000006
 10
123.301896885132
 20
-478.4454000000005
 10
125.3718968328394
 20
-476.6772999999994
 10
126.116
 20
-476.0419000000002
 10
130.1902967111164
 20
-471.7021999999997
 10
131.2812966835554
 20
-473.4930000000004
 10
132.1013966628379
 20
-474.8389000000006
 10
131.7050966728493
 20
-477.0892000000003
 10
130.5650967016481
 20
-478.9179999999997
 10
128.2094967611556
 20
-482.6969000000008
 10
125.9631968179019
 20
-486.5349000000006
 10
123.107496890043
 20
-490.0365999999995
 10
128.8632967446392
 20
-487.5786000000007
 10
132.7320966469051
 20
-483.1540999999997
 10
135.7617965703685
 20
-477.8942000000006
 10
139.067
 20
-472.1558999999997
 10
143.2991963799577
 20
-467.3893000000007
 10
148.931096237684
 20
-463.7605999999996
 10
155.9843960595026
 20
-459.2160000000003
 10
163.9260000000004
 20
-456.3940999999995
 10
171.0301956794137
 20
-451.9629999999997
 10
173.0991956271464
 20
-450.6726999999992
 10
174.7916955843903
 20
-448.7993000000006
 10
177.1520955247615
 20
-447.9125000000004
 10
178.3320000000003
 20
-448.0794000000005
 10
180.0077954526205
 20
-448.4110000000001
 10
181.2839999999997
 20
-448.090400000001
 10
181.587295412719
 20
-448.3194000000003
 10
181.8840954052212
 20
-448.5578000000005
 10
182.1754953978598
 20
-448.8044000000009
 10
181.6600954108799
 20
-450.1218000000008
 10
180.7786954331459
 20
-451.3914999999997
 10
179.8902954555888
 20
-452.4840999999997
 10
175.6292955632307
 20
-457.7247000000007
 10
171.3469999999998
 20
-462.9627
 10
166.7844957866691
 20
-467.9369000000006
 10
166.4495957951294
 20
-468.3021000000008
 10
166.1865958017734
 20
-468.6751000000004
 10
165.9728958071719
 20
-469.0552000000007
 10
164.0031958569307
 20
-470.4505000000008
 10
162.2979999999998
 20
-472.0985000000001
 10
160.8884959356146
 20
-474.0175999999992
 10
156.4308960482231
 20
-478.1507000000001
 10
151.2871961781639
 20
-481.5483000000004
 10
147.4960000000001
 20
-486.3960999999999
 10
144.9580963380504
 20
-489.6409999999996
 10
145.6035963217437
 20
-491.9743999999992
 10
149.6224962202177
 20
-492.7816999999995
 10
155.8286960634359
 20
-494.0280999999995
 10
161.7251959144778
 20
-492.9683999999997
 10
166.8254957856334
 20
-489.1087000000007
 10
170.9801956806768
 20
-485.9645
 10
175.5161955660878
 20
-484.5094000000008
 10
180.6947954352654
 20
-484.4053999999996
 10
185.4481953151844
 20
-484.3099000000002
 10
189.6088952100763
 20
-482.6093000000001
 10
193.2849999999999
 20
-479.3636000000006
 10
196.4821950364421
 20
-476.5409999999993
 10
200.8444949262412
 20
-475.2764000000006
 10
203.7033948540193
 20
-471.8425000000007
 10
207.275394763783
 20
-467.5526000000009
 10
211.0870946674913
 20
-463.3598999999995
 10
212.5147946314246
 20
-457.8430000000008
 10
213.1261946159793
 20
-455.4804999999997
 10
214.8339999999998
 20
-453.9192999999996
 10
216.2445945372019
 20
-452.1815000000006
 10
217.8458944967497
 20
-450.2088999999996
 10
221.4430944058768
 20
-449.6067000000003
 10
223.544094352801
 20
-448.3544999999995
 10
226.6596942740944
 20
-446.4976999999999
 10
227.275294258543
 20
-443.1157000000003
 10
227.7308942470336
 20
-439.8165000000008
 10
228.3766942307193
 20
-435.1406000000006
 10
230.8388941685189
 20
-432.0167999999994
 10
233.9608940896505
 20
-429.0481999999993
 10
236.0582940366658
 20
-427.0542000000005
 10
238.1934939827261
 20
-426.9362999999994
 10
240.0330000000004
 20
-429.3467999999993
 10
244.8114938155413
 20
-435.6093999999994
 10
251.590193644297
 20
-438.9400999999998
 10
258.3924934724564
 20
-442.3852999999999
 10
262.4257933705667
 20
-444.4279999999999
 10
266.2089999999998
 20
-446.8209000000006
 10
269.0637932028767
 20
-450.7551999999996
 10
272.1386931251982
 20
-454.9932000000008
 10
275.004493052802
 20
-459.3772000000008
 10
277.8228929816032
 20
-463.7885000000006
 10
279.7937929318141
 20
-466.8734999999997
 10
281.1814928967578
 20
-472.1247999999996
 10
284.1962928205976
 20
-474.2365000000009
 10
288.7478927056145
 20
-477.4249
 10
291.8005926284968
 20
-480.1767
 10
294.7678925535365
 20
-484.9513999999999
 10
296.3122925145217
 20
-487.4362999999994
 10
298.0320000000002
 20
-489.7528000000002
 10
301.0003923960903
 20
-492.3664000000008
 10
300.1521924175177
 20
-483.4210000000003
 10
298.4747924598923
 20
-475.8804999999993
 10
291.7537926296791
 20
-470.5231999999996
 10
289.0102926989857
 20
-468.3364000000001
 10
288.3407927158987
 20
-465.4082999999991
 10
287.6151927342289
 20
-461.8307000000004
 10
295.0017925476277
 20
-464.3217999999997
 10
300.9047923985054
 20
-468.3407000000007
 10
306.4392922586921
 20
-473.0071000000007
 10
309.3840921843002
 20
-475.4899000000005
 10
312.2707921113761
 20
-478.5370000000003
 10
315.4978920298527
 20
-480.6332000000002
 10
316.2008920120934
 20
-483.6165000000001
 10
319.8882919189418
 20
-483.4292000000005
 10
321.4063918805914
 20
-485.6846000000005
 10
320.7468918972518
 20
-484.7047999999995
 10
320.6363919000432
 20
-482.5406000000003
 10
320.0958919136974
 20
-481.348
 10
319.6001919262198
 20
-480.2543000000005
 10
319.1930919365041
 20
-479.2391000000007
 10
318.7723919471318
 20
-478.2823000000008
 97
        0
 97
        0
 75
     2
 76
     1
 98
        0
  0
ENDSEC
  0
SECTION
  2
OBJECTS
  0
DICTIONARY
  5
C
330
0
100
AcDbDictionary
281
     1
  3
ACAD_GROUP
350
D
  3
ACAD_LAYOUT
350
1A
  3
ACAD_MATERIAL
350
3B
  3
ACAD_MLEADERSTYLE
350
46
  3
ACAD_MLINESTYLE
350
17
  3
ACAD_PLOTSETTINGS
350
19
  3
ACAD_PLOTSTYLENAME
350
E
  3
ACAD_TABLESTYLE
350
45
  3
ACAD_VISUALSTYLE
350
2A
  0
SUN
  5
3F
330
29
100
AcDbSun
 90
        1
290
     0
 63
     7
421
 16777215
 40
1.0
291
     1
 91
  2455826
 92
 54000000
292
     0
 70
     2
 71
   256
280
     1
  0
DICTIONARY
  5
D
102
{ACAD_REACTORS
330
C
102
}
330
C
100
AcDbDictionary
281
     1
  0
DICTIONARY
  5
1A
102
{ACAD_REACTORS
330
C
102
}
330
C
100
AcDbDictionary
281
     1
  3
Layout1
350
1E
  3
Layout2
350
26
  3
Model
350
22
  0
DICTIONARY
  5
3B
102
{ACAD_REACTORS
330
C
102
}
330
C
100
AcDbDictionary
281
     1
  3
ByBlock
350
3D
  3
ByLayer
350
3C
  3
Global
350
3E
  0
DICTIONARY
  5
46
102
{ACAD_REACTORS
330
C
102
}
330
C
100
AcDbDictionary
281
     1
  0
DICTIONARY
  5
17
102
{ACAD_REACTORS
330
C
102
}
330
C
100
AcDbDictionary
281
     1
  3
Standard
350
18
  0
DICTIONARY
  5
19
102
{ACAD_REACTORS
330
C
102
}
330
C
100
AcDbDictionary
281
     1
  0
ACDBDICTIONARYWDFLT
  5
E
102
{ACAD_REACTORS
330
C
102
}
330
C
100
AcDbDictionary
281
     1
  3
Normal
350
F
100
AcDbDictionaryWithDefault
340
F
  0
DICTIONARY
  5
45
102
{ACAD_REACTORS
330
C
102
}
330
C
100
AcDbDictionary
281
     1
  0
DICTIONARY
  5
2A
102
{ACAD_REACTORS
330
C
102
}
330
C
100
AcDbDictionary
281
     1
  3
2dWireframe
350
2F
  3
3D Hidden
350
31
  3
3dWireframe
350
30
  3
Basic
350
32
  3
Brighten
350
36
  3
ColorChange
350
3A
  3
Conceptual
350
34
  3
Dim
350
35
  3
Facepattern
350
39
  3
Flat
350
2B
  3
FlatWithEdges
350
2C
  3
Gouraud
350
2D
  3
GouraudWithEdges
350
2E
  3
Linepattern
350
38
  3
Realistic
350
33
  3
Thicken
350
37
  0
LAYOUT
  5
1E
102
{ACAD_REACTORS
330
1A
102
}
330
1A
100
AcDbPlotSettings
  1

  2
none_device
  4

  6

 40
0.0
 41
0.0
 42
0.0
 43
0.0
 44
0.0
 45
0.0
 46
0.0
 47
0.0
 48
0.0
 49
0.0
140
0.0
141
0.0
142
1.0
143
1.0
 70
   688
 72
     0
 73
     0
 74
     5
  7

 75
    16
 76
     0
 77
     2
 78
   300
147
1.0
148
0.0
149
0.0
100
AcDbLayout
  1
Layout1
 70
     1
 71
     1
 10
0.0
 20
0.0
 11
12.0
 21
9.0
 12
0.0
 22
0.0
 32
0.0
 14
1.000000000000000E+20
 24
1.000000000000000E+20
 34
1.000000000000000E+20
 15
-1.000000000000000E+20
 25
-1.000000000000000E+20
 35
-1.000000000000000E+20
146
0.0
 13
0.0
 23
0.0
 33
0.0
 16
1.0
 26
0.0
 36
0.0
 17
0.0
 27
1.0
 37
0.0
 76
     0
330
1B
  0
LAYOUT
  5
26
102
{ACAD_REACTORS
330
1A
102
}
330
1A
100
AcDbPlotSettings
  1

  2
none_device
  4

  6

 40
0.0
 41
0.0
 42
0.0
 43
0.0
 44
0.0
 45
0.0
 46
0.0
 47
0.0
 48
0.0
 49
0.0
140
0.0
141
0.0
142
1.0
143
1.0
 70
   688
 72
     0
 73
     0
 74
     5
  7

 75
    16
 76
     0
 77
     2
 78
   300
147
1.0
148
0.0
149
0.0
100
AcDbLayout
  1
Layout2
 70
     1
 71
     2
 10
0.0
 20
0.0
 11
0.0
 21
0.0
 12
0.0
 22
0.0
 32
0.0
 14
0.0
 24
0.0
 34
0.0
 15
0.0
 25
0.0
 35
0.0
146
0.0
 13
0.0
 23
0.0
 33
0.0
 16
1.0
 26
0.0
 36
0.0
 17
0.0
 27
1.0
 37
0.0
 76
     0
330
23
  0
LAYOUT
  5
22
102
{ACAD_REACTORS
330
1A
102
}
330
1A
100
AcDbPlotSettings
  1

  2
none_device
  4

  6

 40
0.0
 41
0.0
 42
0.0
 43
0.0
 44
0.0
 45
0.0
 46
0.0
 47
0.0
 48
0.0
 49
0.0
140
0.0
141
0.0
142
1.0
143
1.0
 70
  1712
 72
     0
 73
     0
 74
     0
  7

 75
     0
 76
     0
 77
     2
 78
   300
147
1.0
148
0.0
149
0.0
100
AcDbLayout
  1
Model
 70
     1
 71
     0
 10
0.0
 20
0.0
 11
12.0
 21
9.0
 12
0.0
 22
0.0
 32
0.0
 14
1.000000000000000E+20
 24
1.000000000000000E+20
 34
1.000000000000000E+20
 15
-1.000000000000000E+20
 25
-1.000000000000000E+20
 35
-1.000000000000000E+20
146
0.0
 13
0.0
 23
0.0
 33
0.0
 16
1.0
 26
0.0
 36
0.0
 17
0.0
 27
1.0
 37
0.0
 76
     0
330
1F
331
29
  0
MATERIAL
  5
3D
102
{ACAD_REACTORS
330
3B
102
}
330
3B
100
AcDbMaterial
  1
ByBlock
 72
     1
 94
      127
  0
MATERIAL
  5
3C
102
{ACAD_REACTORS
330
3B
102
}
330
3B
100
AcDbMaterial
  1
ByLayer
 72
     1
 94
      127
  0
MATERIAL
  5
3E
102
{ACAD_REACTORS
330
3B
102
}
330
3B
100
AcDbMaterial
  1
Global
 72
     1
 94
      127
  0
MLINESTYLE
  5
18
102
{ACAD_REACTORS
330
17
102
}
330
17
100
AcDbMlineStyle
  2
Standard
 70
     0
  3

 62
   256
 51
90.0
 52
90.0
 71
     2
 49
0.5
 62
   256
  6
BYLAYER
 49
-0.5
 62
   256
  6
BYLAYER
  0
ACDBPLACEHOLDER
  5
F
102
{ACAD_REACTORS
330
E
102
}
330
E
  0
VISUALSTYLE
  5
2F
102
{ACAD_REACTORS
330
2A
102
}
330
2A
100
AcDbVisualStyle
  2
2dWireframe
 70
     4
177
     2
291
     0
 71
     0
176
     1
 72
     2
176
     1
 73
     0
176
     1
 90
        0
176
     1
 40
-0.6
176
     1
 41
-30.0
176
     1
 62
     5
 63
     7
421
 16777215
176
     1
 74
     1
176
     1
 91
        4
176
     1
 64
     7
176
     1
 65
   257
176
     1
 75
     1
176
     1
175
     1
176
     1
 42
1.0
176
     1
 92
        0
176
     1
 66
   257
176
     1
 43
1.0
176
     1
 76
     1
176
     1
 77
     6
176
     1
 78
     2
176
     1
 67
     7
176
     1
 79
     5
176
     1
170
     0
176
     1
171
     0
176
     1
290
     0
176
     1
 93
        1
176
     1
 44
0.0
176
     1
173
     0
176
     1
  0
VISUALSTYLE
  5
31
102
{ACAD_REACTORS
330
2A
102
}
330
2A
100
AcDbVisualStyle
  2
3D Hidden
 70
     6
177
     2
291
     0
 71
     1
176
     1
 72
     2
176
     1
 73
     2
176
     1
 90
        0
176
     1
 40
-0.6
176
     1
 41
-30.0
176
     1
 62
     5
 63
     7
421
 16777215
176
     1
 74
     2
176
     1
 91
        2
176
     1
 64
     7
176
     1
 65
   257
176
     1
 75
     2
176
     1
175
     1
176
     1
 42
40.0
176
     1
 92
        0
176
     1
 66
   257
176
     1
 43
1.0
176
     1
 76
     1
176
     1
 77
     6
176
     1
 78
     2
176
     1
 67
     7
176
     1
 79
     3
176
     1
170
     0
176
     1
171
     0
176
     1
290
     0
176
     1
 93
        1
176
     1
 44
0.0
176
     1
173
     0
176
     1
  0
VISUALSTYLE
  5
30
102
{ACAD_REACTORS
330
2A
102
}
330
2A
100
AcDbVisualStyle
  2
3dWireframe
 70
     5
177
     2
291
     0
 71
     0
176
     1
 72
     2
176
     1
 73
     0
176
     1
 90
        0
176
     1
 40
-0.6
176
     1
 41
-30.0
176
     1
 62
     5
 63
     7
421
 16777215
176
     1
 74
     1
176
     1
 91
        4
176
     1
 64
     7
176
     1
 65
   257
176
     1
 75
     1
176
     1
175
     1
176
     1
 42
1.0
176
     1
 92
        0
176
     1
 66
   257
176
     1
 43
1.0
176
     1
 76
     1
176
     1
 77
     6
176
     1
 78
     2
176
     1
 67
     7
176
     1
 79
     5
176
     1
170
     0
176
     1
171
     0
176
     1
290
     0
176
     1
 93
        1
176
     1
 44
0.0
176
     1
173
     0
176
     1
  0
VISUALSTYLE
  5
32
102
{ACAD_REACTORS
330
2A
102
}
330
2A
100
AcDbVisualStyle
  2
Basic
 70
     7
177
     2
291
     1
 71
     1
176
     1
 72
     0
176
     1
 73
     1
176
     1
 90
        0
176
     1
 40
-0.6
176
     1
 41
-30.0
176
     1
 62
     5
 63
     7
421
 16777215
176
     1
 74
     0
176
     1
 91
        4
176
     1
 64
     7
176
     1
 65
   257
176
     1
 75
     1
176
     1
175
     1
176
     1
 42
1.0
176
     1
 92
        8
176
     1
 66
     7
176
     1
 43
1.0
176
     1
 76
     1
176
     1
 77
     6
176
     1
 78
     2
176
     1
 67
     7
176
     1
 79
     5
176
     1
170
     0
176
     1
171
     0
176
     1
290
     0
176
     1
 93
        1
176
     1
 44
0.0
176
     1
173
     0
176
     1
  0
VISUALSTYLE
  5
36
102
{ACAD_REACTORS
330
2A
102
}
330
2A
100
AcDbVisualStyle
  2
Brighten
 70
    12
177
     2
291
     1
 71
     2
176
     1
 72
     2
176
     1
 73
     0
176
     1
 90
        0
176
     1
 40
-0.6
176
     1
 41
-30.0
176
     1
 62
     5
 63
     7
421
 16777215
176
     1
 74
     1
176
     1
 91
        4
176
     1
 64
     7
176
     1
 65
   257
176
     1
 75
     1
176
     1
175
     1
176
     1
 42
1.0
176
     1
 92
        8
176
     1
 66
     7
176
     1
 43
1.0
176
     1
 76
     1
176
     1
 77
     6
176
     1
 78
     2
176
     1
 67
     7
176
     1
 79
     5
176
     1
170
     0
176
     1
171
     0
176
     1
290
     0
176
     1
 93
        1
176
     1
 44
50.0
176
     1
173
     0
176
     1
  0
VISUALSTYLE
  5
3A
102
{ACAD_REACTORS
330
2A
102
}
330
2A
100
AcDbVisualStyle
  2
ColorChange
 70
    16
177
     2
291
     1
 71
     2
176
     1
 72
     2
176
     1
 73
     3
176
     1
 90
        0
176
     1
 40
-0.6
176
     1
 41
-30.0
176
     1
 62
     5
 63
     8
421
  8421504
176
     1
 74
     1
176
     1
 91
        4
176
     1
 64
     7
176
     1
 65
   257
176
     1
 75
     1
176
     1
175
     1
176
     1
 42
1.0
176
     1
 92
        8
176
     1
 66
     8
424
  8421504
176
     1
 43
1.0
176
     1
 76
     1
176
     1
 77
     6
176
     1
 78
     2
176
     1
 67
     7
176
     1
 79
     5
176
     1
170
     0
176
     1
171
     0
176
     1
290
     0
176
     1
 93
        1
176
     1
 44
0.0
176
     1
173
     0
176
     1
  0
VISUALSTYLE
  5
34
102
{ACAD_REACTORS
330
2A
102
}
330
2A
100
AcDbVisualStyle
  2
Conceptual
 70
     9
177
     2
291
     0
 71
     3
176
     1
 72
     2
176
     1
 73
     0
176
     1
 90
        0
176
     1
 40
-0.6
176
     1
 41
-30.0
176
     1
 62
     5
 63
     7
421
 16777215
176
     1
 74
     2
176
     1
 91
        2
176
     1
 64
     7
176
     1
 65
   257
176
     1
 75
     1
176
     1
175
     1
176
     1
 42
40.0
176
     1
 92
        8
176
     1
 66
     7
176
     1
 43
1.0
176
     1
 76
     1
176
     1
 77
     6
176
     1
 78
     2
176
     1
 67
     7
176
     1
 79
     3
176
     1
170
     0
176
     1
171
     0
176
     1
290
     0
176
     1
 93
        1
176
     1
 44
0.0
176
     1
173
     0
176
     1
  0
VISUALSTYLE
  5
35
102
{ACAD_REACTORS
330
2A
102
}
330
2A
100
AcDbVisualStyle
  2
Dim
 70
    11
177
     2
291
     1
 71
     2
176
     1
 72
     2
176
     1
 73
     0
176
     1
 90
        0
176
     1
 40
-0.6
176
     1
 41
-30.0
176
     1
 62
     5
 63
     7
421
 16777215
176
     1
 74
     1
176
     1
 91
        4
176
     1
 64
     7
176
     1
 65
   257
176
     1
 75
     1
176
     1
175
     1
176
     1
 42
1.0
176
     1
 92
        8
176
     1
 66
     7
176
     1
 43
1.0
176
     1
 76
     1
176
     1
 77
     6
176
     1
 78
     2
176
     1
 67
     7
176
     1
 79
     5
176
     1
170
     0
176
     1
171
     0
176
     1
290
     0
176
     1
 93
        1
176
     1
 44
-50.0
176
     1
173
     0
176
     1
  0
VISUALSTYLE
  5
39
102
{ACAD_REACTORS
330
2A
102
}
330
2A
100
AcDbVisualStyle
  2
Facepattern
 70
    15
177
     2
291
     1
 71
     2
176
     1
 72
     2
176
     1
 73
     0
176
     1
 90
        0
176
     1
 40
-0.6
176
     1
 41
-30.0
176
     1
 62
     5
 63
     7
421
 16777215
176
     1
 74
     1
176
     1
 91
        4
176
     1
 64
     7
176
     1
 65
   257
176
     1
 75
     1
176
     1
175
     1
176
     1
 42
1.0
176
     1
 92
        8
176
     1
 66
     7
176
     1
 43
1.0
176
     1
 76
     1
176
     1
 77
     6
176
     1
 78
     2
176
     1
 67
     7
176
     1
 79
     5
176
     1
170
     0
176
     1
171
     0
176
     1
290
     0
176
     1
 93
        1
176
     1
 44
0.0
176
     1
173
     0
176
     1
  0
VISUALSTYLE
  5
2B
102
{ACAD_REACTORS
330
2A
102
}
330
2A
100
AcDbVisualStyle
  2
Flat
 70
     0
177
     2
291
     1
 71
     2
176
     1
 72
     1
176
     1
 73
     1
176
     1
 90
        2
176
     1
 40
-0.6
176
     1
 41
30.0
176
     1
 62
     5
 63
     7
421
 16777215
176
     1
 74
     0
176
     1
 91
        4
176
     1
 64
     7
176
     1
 65
   257
176
     1
 75
     1
176
     1
175
     1
176
     1
 42
1.0
176
     1
 92
        8
176
     1
 66
     7
176
     1
 43
1.0
176
     1
 76
     1
176
     1
 77
     6
176
     1
 78
     2
176
     1
 67
     7
176
     1
 79
     5
176
     1
170
     0
176
     1
171
     0
176
     1
290
     0
176
     1
 93
       13
176
     1
 44
0.0
176
     1
173
     0
176
     1
  0
VISUALSTYLE
  5
2C
102
{ACAD_REACTORS
330
2A
102
}
330
2A
100
AcDbVisualStyle
  2
FlatWithEdges
 70
     1
177
     2
291
     1
 71
     2
176
     1
 72
     1
176
     1
 73
     1
176
     1
 90
        2
176
     1
 40
-0.6
176
     1
 41
30.0
176
     1
 62
     5
 63
     7
421
 16777215
176
     1
 74
     1
176
     1
 91
        4
176
     1
 64
     7
176
     1
 65
   257
176
     1
 75
     1
176
     1
175
     1
176
     1
 42
1.0
176
     1
 92
        0
176
     1
 66
   257
176
     1
 43
1.0
176
     1
 76
     1
176
     1
 77
     6
176
     1
 78
     2
176
     1
 67
     7
176
     1
 79
     5
176
     1
170
     0
176
     1
171
     0
176
     1
290
     0
176
     1
 93
       13
176
     1
 44
0.0
176
     1
173
     0
176
     1
  0
VISUALSTYLE
  5
2D
102
{ACAD_REACTORS
330
2A
102
}
330
2A
100
AcDbVisualStyle
  2
Gouraud
 70
     2
177
     2
291
     1
 71
     2
176
     1
 72
     2
176
     1
 73
     1
176
     1
 90
        2
176
     1
 40
-0.6
176
     1
 41
30.0
176
     1
 62
     5
 63
     7
421
 16777215
176
     1
 74
     0
176
     1
 91
        4
176
     1
 64
     7
176
     1
 65
   257
176
     1
 75
     1
176
     1
175
     1
176
     1
 42
1.0
176
     1
 92
        0
176
     1
 66
     7
176
     1
 43
1.0
176
     1
 76
     1
176
     1
 77
     6
176
     1
 78
     2
176
     1
 67
     7
176
     1
 79
     5
176
     1
170
     0
176
     1
171
     0
176
     1
290
     0
176
     1
 93
       13
176
     1
 44
0.0
176
     1
173
     0
176
     1
  0
VISUALSTYLE
  5
2E
102
{ACAD_REACTORS
330
2A
102
}
330
2A
100
AcDbVisualStyle
  2
GouraudWithEdges
 70
     3
177
     2
291
     1
 71
     2
176
     1
 72
     2
176
     1
 73
     1
176
     1
 90
        2
176
     1
 40
-0.6
176
     1
 41
30.0
176
     1
 62
     5
 63
     7
421
 16777215
176
     1
 74
     1
176
     1
 91
        4
176
     1
 64
     7
176
     1
 65
   257
176
     1
 75
     1
176
     1
175
     1
176
     1
 42
1.0
176
     1
 92
        0
176
     1
 66
   257
176
     1
 43
1.0
176
     1
 76
     1
176
     1
 77
     6
176
     1
 78
     2
176
     1
 67
     7
176
     1
 79
     5
176
     1
170
     0
176
     1
171
     0
176
     1
290
     0
176
     1
 93
       13
176
     1
 44
0.0
176
     1
173
     0
176
     1
  0
VISUALSTYLE
  5
38
102
{ACAD_REACTORS
330
2A
102
}
330
2A
100
AcDbVisualStyle
  2
Linepattern
 70
    14
177
     2
291
     1
 71
     2
176
     1
 72
     2
176
     1
 73
     0
176
     1
 90
        0
176
     1
 40
-0.6
176
     1
 41
-30.0
176
     1
 62
     5
 63
     7
421
 16777215
176
     1
 74
     1
176
     1
 91
        4
176
     1
 64
     7
176
     1
 65
   257
176
     1
 75
     7
176
     1
175
     7
176
     1
 42
1.0
176
     1
 92
        8
176
     1
 66
     7
176
     1
 43
1.0
176
     1
 76
     1
176
     1
 77
     6
176
     1
 78
     2
176
     1
 67
     7
176
     1
 79
     5
176
     1
170
     0
176
     1
171
     0
176
     1
290
     0
176
     1
 93
        1
176
     1
 44
0.0
176
     1
173
     0
176
     1
  0
VISUALSTYLE
  5
33
102
{ACAD_REACTORS
330
2A
102
}
330
2A
100
AcDbVisualStyle
  2
Realistic
 70
     8
177
     2
291
     0
 71
     2
176
     1
 72
     2
176
     1
 73
     0
176
     1
 90
        0
176
     1
 40
-0.6
176
     1
 41
-30.0
176
     1
 62
     5
 63
     7
421
 16777215
176
     1
 74
     1
176
     1
 91
        0
176
     1
 64
     7
176
     1
 65
   257
176
     1
 75
     1
176
     1
175
     1
176
     1
 42
1.0
176
     1
 92
        8
176
     1
 66
     8
424
  7895160
176
     1
 43
1.0
176
     1
 76
     1
176
     1
 77
     6
176
     1
 78
     2
176
     1
 67
     7
176
     1
 79
     5
176
     1
170
     0
176
     1
171
     0
176
     1
290
     0
176
     1
 93
       13
176
     1
 44
0.0
176
     1
173
     0
176
     1
  0
VISUALSTYLE
  5
37
102
{ACAD_REACTORS
330
2A
102
}
330
2A
100
AcDbVisualStyle
  2
Thicken
 70
    13
177
     2
291
     1
 71
     2
176
     1
 72
     2
176
     1
 73
     0
176
     1
 90
        0
176
     1
 40
-0.6
176
     1
 41
-30.0
176
     1
 62
     5
 63
     7
421
 16777215
176
     1
 74
     1
176
     1
 91
        4
176
     1
 64
     7
176
     1
 65
   257
176
     1
 75
     1
176
     1
175
     1
176
     1
 42
1.0
176
     1
 92
       12
176
     1
 66
     7
176
     1
 43
1.0
176
     1
 76
     1
176
     1
 77
     6
176
     1
 78
     2
176
     1
 67
     7
176
     1
 79
     5
176
     1
170
     0
176
     1
171
     0
176
     1
290
     0
176
     1
 93
        1
176
     1
 44
0.0
176
     1
173
     0
176
     1
  0
ENDSEC
  0
EOF
